<svg width="33" height="33" viewBox="0 0 33 33" fill="none" xmlns="http://www.w3.org/2000/svg">
<g clip-path="url(#clip0)">
<path d="M16.5 0C9.56981 0 3.93164 5.63817 3.93164 12.5684C3.93164 17.0087 6.24628 20.9187 9.73242 23.155V32.0332C9.73242 32.3898 9.92868 32.7174 10.243 32.8856C10.5574 33.0539 10.9389 33.0354 11.2355 32.8376L16.5 29.328L21.7645 32.8376C22.061 33.0353 22.4424 33.0539 22.757 32.8856C23.0713 32.7174 23.2676 32.3898 23.2676 32.0332V23.155C26.7537 20.9187 29.0684 17.0087 29.0684 12.5684C29.0684 5.63817 23.4302 0 16.5 0ZM21.334 30.2267L17.0363 27.3616C16.7115 27.1451 16.2884 27.1451 15.9637 27.3616L11.666 30.2267V24.1693C13.1549 24.7921 14.7879 25.1367 16.5 25.1367C18.2121 25.1367 19.8451 24.7921 21.334 24.1693V30.2267ZM16.5 23.2031C10.636 23.2031 5.86523 18.4324 5.86523 12.5684C5.86523 6.70435 10.636 1.93359 16.5 1.93359C22.364 1.93359 27.1348 6.70435 27.1348 12.5684C27.1348 18.4324 22.3641 23.2031 16.5 23.2031Z" fill="#87789E"/>
<path d="M24.1884 10.3066C24.0754 9.95363 23.7705 9.69633 23.4034 9.64425L19.2266 9.05167L17.3629 5.36463C17.1984 5.0392 16.8647 4.83398 16.5001 4.83398C16.1354 4.83398 15.8018 5.0392 15.6372 5.36463L13.7735 9.05167L9.59668 9.64425C9.22968 9.69633 8.92475 9.95363 8.8117 10.3066C8.69865 10.6596 8.79746 11.0462 9.06597 11.3018L12.0744 14.1649L11.3653 18.2018C11.3018 18.5633 11.4484 18.9296 11.7439 19.1473C12.0393 19.3651 12.4325 19.3968 12.759 19.2292L16.5001 17.309L20.2411 19.2293C20.5683 19.3972 20.9614 19.3648 21.2563 19.1474C21.5516 18.9296 21.6983 18.5633 21.6349 18.2019L20.9257 14.165L23.9342 11.3019C24.2027 11.0462 24.3015 10.6597 24.1884 10.3066ZM19.2173 13.1216C18.9829 13.3447 18.8756 13.6704 18.9316 13.9892L19.3939 16.621L16.9416 15.3622C16.6644 15.2199 16.3357 15.2199 16.0586 15.3622L13.6062 16.621L14.0685 13.9892C14.1245 13.6704 14.0173 13.3447 13.7828 13.1216L11.8458 11.2781L14.5446 10.8953C14.8575 10.8509 15.129 10.6563 15.2716 10.3742L16.5001 7.94385L17.7285 10.3742C17.8711 10.6563 18.1426 10.8509 18.4556 10.8952L21.1543 11.2781L19.2173 13.1216Z" fill="#87789E"/>
</g>
<defs>
<clipPath id="clip0">
<rect width="33" height="33" fill="white"/>
</clipPath>
</defs>
</svg>
