<svg width="34" height="34" viewBox="0 0 34 34" fill="none" xmlns="http://www.w3.org/2000/svg">
<path d="M33.4895 12.8653C32.4946 8.89749 30.1023 5.4215 26.7517 3.07501C23.401 0.728527 19.3165 -0.331093 15.2477 0.0905533C11.1789 0.512199 7.39851 2.38684 4.60018 5.37053C1.80184 8.35424 0.173198 12.2469 0.0130356 16.3344C-0.147127 20.4219 1.17194 24.43 3.72822 27.6236C6.28451 30.8171 9.90659 32.9818 13.93 33.7205C17.9533 34.4592 22.1081 33.7224 25.6322 31.6453C29.1562 29.5682 31.8131 26.2901 33.1154 22.4123L30.1031 21.4006C29.0442 24.5536 26.884 27.219 24.0186 28.9078C21.1533 30.5967 17.7751 31.1957 14.5038 30.5951C11.2325 29.9945 8.28745 28.2344 6.20898 25.6378C4.13051 23.0412 3.05801 19.7823 3.18824 16.4588C3.31846 13.1354 4.64268 9.9703 6.91795 7.54431C9.19322 5.11832 12.267 3.59409 15.5752 3.25126C18.8835 2.90843 22.2045 3.76999 24.9289 5.67787C27.6533 7.58575 29.5984 10.412 30.4073 13.6381L33.4895 12.8653Z" fill="#B4A66E"/>
<path d="M5.751 19.8205C6.42973 22.5274 8.06173 24.8987 10.3476 26.4995C12.6334 28.1003 15.4199 28.8231 18.1956 28.5355C20.9714 28.2478 23.5504 26.969 25.4594 24.9335C27.3684 22.898 28.4795 20.2424 28.5888 17.4539C28.698 14.6654 27.7982 11.931 26.0542 9.75238C24.3103 7.57375 21.8393 6.09699 19.0946 5.59303C16.3498 5.08906 13.5154 5.59169 11.1113 7.00871C8.7072 8.42572 6.89466 10.6621 6.0062 13.3075L8.74542 14.2275C9.41251 12.2412 10.7735 10.562 12.5786 9.49804C14.3837 8.43409 16.5119 8.05669 18.5728 8.43509C20.6336 8.81349 22.489 9.9223 23.7984 11.5581C25.1078 13.1939 25.7834 15.247 25.7014 17.3407C25.6194 19.4345 24.7851 21.4284 23.3517 22.9567C21.9184 24.4851 19.9819 25.4453 17.8978 25.6613C15.8136 25.8773 13.7214 25.3345 12.0051 24.1326C10.2888 22.9306 9.06342 21.1501 8.5538 19.1177L5.751 19.8205Z" fill="#B4A66E"/>
</svg>
