<svg width="32" height="32" viewBox="0 0 32 32" fill="none" xmlns="http://www.w3.org/2000/svg">
<path d="M24.6824 14.0787C23.5682 12.7079 22.2944 11.6157 20.8962 10.8304C21.1252 10.5594 21.3059 10.2417 21.4226 9.88769C21.8804 8.49337 21.2116 6.83713 19.5046 6.29756L21.8976 2.12475C22.1996 1.59812 21.9283 0.927375 21.3461 0.758125C19.6159 0.255063 17.8173 0 16 0C14.1827 0 12.3841 0.255063 10.6539 0.758125C10.071 0.927562 9.80081 1.59875 10.1024 2.12475L12.4954 6.29763C10.7951 6.83444 10.1179 8.48825 10.5777 9.88844C10.694 10.2416 10.8746 10.5591 11.1043 10.8301C9.70588 11.6155 8.432 12.7078 7.31763 14.0787C5.09006 16.8191 3.8125 20.2758 3.8125 23.5625C3.8125 30.3807 9.25294 32 16 32C22.7518 32 28.1875 30.3779 28.1875 23.5625C28.1875 20.2758 26.9099 16.8191 24.6824 14.0787ZM12.3435 2.26362C13.5396 2.00544 14.7649 1.875 16 1.875C17.2351 1.875 18.4604 2.00544 19.6565 2.26362L17.5919 5.86375C16.5345 5.71613 15.4658 5.71619 14.4081 5.86381L12.3435 2.26362ZM12.956 8.1185C14.5694 7.58925 16.2574 7.48894 17.8985 7.817C17.9004 7.81737 17.9024 7.81775 17.9044 7.81812C18.2869 7.89487 18.6668 7.99475 19.0427 8.11806C19.534 8.28 19.8025 8.81144 19.6414 9.30188C19.5244 9.65706 19.2153 9.90169 18.8517 9.94131C17.917 9.64863 16.9636 9.5 16 9.5C15.0384 9.5 14.0868 9.648 13.1539 9.9395C12.7847 9.9015 12.4749 9.65512 12.3588 9.30275C12.1975 8.81144 12.466 8.27994 12.956 8.1185ZM16 30.1375C8.67525 30.1375 5.6875 28.2238 5.6875 23.5625C5.6875 20.7411 6.84081 17.6379 8.7725 15.2614C10.8097 12.7552 13.3764 11.375 16 11.375C18.8879 11.375 21.4138 13.0301 23.2275 15.2614C25.1592 17.6379 26.3125 20.7411 26.3125 23.5625C26.3125 28.2238 23.3247 30.1375 16 30.1375Z" fill="#774343"/>
<path d="M21.6549 19.4773C21.3087 18.0965 20.4761 16.8869 19.31 16.0703C18.1439 15.2538 16.7225 14.885 15.3065 15.0318C13.8904 15.1785 12.5748 15.8309 11.6009 16.8692C10.6271 17.9075 10.0603 19.2621 10.0045 20.6845C9.9488 22.1069 10.4079 23.5017 11.2975 24.6131C12.1871 25.7244 13.4477 26.4777 14.8479 26.7348C16.2481 26.9918 17.694 26.7354 18.9204 26.0126C20.1469 25.2898 21.0715 24.149 21.5247 22.7996L20.4764 22.4475C20.1079 23.5447 19.3561 24.4723 18.3589 25.06C17.3617 25.6477 16.186 25.8562 15.0476 25.6471C13.9091 25.4381 12.8842 24.8256 12.1608 23.922C11.4375 23.0184 11.0642 21.8843 11.1096 20.7278C11.1549 19.5713 11.6157 18.4698 12.4076 17.6256C13.1994 16.7814 14.2691 16.251 15.4205 16.1317C16.5718 16.0124 17.7275 16.3122 18.6757 16.9761C19.6238 17.64 20.3007 18.6236 20.5823 19.7462L21.6549 19.4773Z" fill="#774343"/>
<path d="M12.0011 21.8973C12.2373 22.8393 12.8053 23.6645 13.6008 24.2215C14.3963 24.7786 15.366 25.0302 16.3321 24.9301C17.2981 24.83 18.1956 24.3849 18.86 23.6766C19.5244 22.9682 19.911 22.0441 19.9491 21.0737C19.9871 20.1034 19.6739 19.1518 19.067 18.3937C18.4601 17.6355 17.6001 17.1216 16.6449 16.9462C15.6897 16.7709 14.7033 16.9458 13.8666 17.4389C13.0299 17.932 12.3991 18.7102 12.0899 19.6308L13.0432 19.951C13.2754 19.2597 13.749 18.6754 14.3772 18.3052C15.0054 17.9349 15.7461 17.8036 16.4633 17.9353C17.1805 18.0669 17.8262 18.4528 18.2819 19.0221C18.7376 19.5913 18.9728 20.3058 18.9442 21.0344C18.9157 21.763 18.6253 22.4569 18.1265 22.9887C17.6276 23.5206 16.9537 23.8547 16.2284 23.9299C15.5031 24.005 14.775 23.8162 14.1777 23.3979C13.5804 22.9796 13.1539 22.36 12.9765 21.6527L12.0011 21.8973Z" fill="#774343"/>
</svg>
