<svg width="154" height="40" viewBox="0 0 154 40" fill="none" xmlns="http://www.w3.org/2000/svg">
<path opacity="0.8" d="M52.464 26.4127C50.8 26.4127 49.4027 25.8687 48.272 24.7807C47.1413 23.682 46.576 22.2633 46.576 20.5247C46.576 18.7967 47.1467 17.378 48.288 16.2687C49.4293 15.1487 50.8107 14.5887 52.432 14.5887C53.2427 14.5887 53.9733 14.7113 54.624 14.9567C55.2853 15.1913 55.8187 15.506 56.224 15.9007C56.6293 16.2953 56.9547 16.7007 57.2 17.1167C57.4453 17.5327 57.616 17.9647 57.712 18.4127L55.328 19.1647C55.2747 18.9407 55.1893 18.722 55.072 18.5087C54.9547 18.2847 54.7893 18.0607 54.576 17.8367C54.3627 17.602 54.0693 17.4153 53.696 17.2767C53.3227 17.1273 52.9013 17.0527 52.432 17.0527C51.5787 17.0527 50.8267 17.3567 50.176 17.9647C49.5253 18.562 49.2 19.4153 49.2 20.5247C49.2 21.5487 49.52 22.3647 50.16 22.9727C50.8 23.5807 51.568 23.8847 52.464 23.8847C53.3387 23.8847 54.016 23.666 54.496 23.2287C54.976 22.7913 55.2907 22.3007 55.44 21.7567L57.856 22.4447C57.7493 22.882 57.5733 23.314 57.328 23.7407C57.0933 24.1673 56.768 24.5887 56.352 25.0047C55.9467 25.4207 55.4027 25.762 54.72 26.0287C54.048 26.2847 53.296 26.4127 52.464 26.4127ZM64.3936 18.2207V20.6207C64.1696 20.5673 63.9136 20.5407 63.6256 20.5407C63.0816 20.5407 62.6336 20.7167 62.2816 21.0687C61.9403 21.4207 61.7696 21.9647 61.7696 22.7007V26.1727H59.3376V18.2207H61.6896V19.2927C61.8816 18.8873 62.175 18.594 62.5696 18.4127C62.9643 18.2313 63.359 18.1407 63.7536 18.1407C63.999 18.1407 64.2123 18.1673 64.3936 18.2207ZM67.6151 21.2447H70.7991C70.7778 20.882 70.6338 20.5673 70.3671 20.3007C70.1111 20.034 69.7218 19.9007 69.1991 19.9007C68.7298 19.9007 68.3565 20.0393 68.0791 20.3167C67.8018 20.594 67.6471 20.9033 67.6151 21.2447ZM70.9751 23.3087L73.0071 23.8847C72.8045 24.6207 72.3831 25.2287 71.7431 25.7087C71.1031 26.178 70.3031 26.4127 69.3431 26.4127C68.1911 26.4127 67.2098 26.0287 66.3991 25.2607C65.5991 24.4927 65.1991 23.4633 65.1991 22.1727C65.1991 20.9353 65.5885 19.9273 66.3671 19.1487C67.1565 18.37 68.0898 17.9807 69.1671 17.9807C70.4045 17.9807 71.3751 18.3433 72.0791 19.0687C72.7938 19.7833 73.1511 20.7807 73.1511 22.0607C73.1511 22.466 73.1351 22.7167 73.1031 22.8127H67.5671C67.5885 23.25 67.7751 23.618 68.1271 23.9167C68.4791 24.2047 68.8951 24.3487 69.3751 24.3487C70.1965 24.3487 70.7298 24.002 70.9751 23.3087ZM82.5366 14.5887V24.7487C82.5366 25.2287 82.558 25.7033 82.6006 26.1727H80.2646C80.222 25.9167 80.2006 25.6607 80.2006 25.4047C80.0086 25.682 79.7206 25.9113 79.3366 26.0927C78.9633 26.2633 78.542 26.3487 78.0726 26.3487C76.942 26.3487 76.0033 25.9593 75.2566 25.1807C74.51 24.3913 74.1366 23.3887 74.1366 22.1727C74.1366 20.978 74.4993 19.9913 75.2246 19.2127C75.95 18.4233 76.8726 18.0287 77.9926 18.0287C79.0806 18.0287 79.7953 18.3007 80.1366 18.8447V14.5887H82.5366ZM77.0966 20.7327C76.7553 21.074 76.5846 21.5593 76.5846 22.1887C76.5846 22.818 76.7553 23.3087 77.0966 23.6607C77.4486 24.002 77.8753 24.1727 78.3766 24.1727C78.878 24.1727 79.2993 24.002 79.6406 23.6607C79.9926 23.3087 80.1686 22.818 80.1686 22.1887C80.1686 21.5593 79.9926 21.074 79.6406 20.7327C79.2993 20.3913 78.878 20.2207 78.3766 20.2207C77.8753 20.2207 77.4486 20.3913 77.0966 20.7327ZM87.1603 26.1727H84.7283V18.2207H87.1603V26.1727ZM84.9363 16.7967C84.6589 16.5193 84.5203 16.1833 84.5203 15.7887C84.5203 15.394 84.6589 15.058 84.9363 14.7807C85.2136 14.5033 85.5443 14.3647 85.9283 14.3647C86.3229 14.3647 86.6589 14.5033 86.9363 14.7807C87.2243 15.058 87.3683 15.394 87.3683 15.7887C87.3683 16.1833 87.2243 16.5193 86.9363 16.7967C86.6589 17.074 86.3229 17.2127 85.9283 17.2127C85.5443 17.2127 85.2136 17.074 84.9363 16.7967ZM92.2028 15.9007V18.2207H93.7548V20.3487H92.2028V23.3247C92.2028 23.8793 92.4961 24.1567 93.0828 24.1567C93.2748 24.1567 93.4881 24.13 93.7228 24.0767V26.0927C93.4241 26.242 93.0028 26.3167 92.4588 26.3167C91.6374 26.3167 90.9868 26.0873 90.5068 25.6287C90.0374 25.17 89.8028 24.546 89.8028 23.7567V20.3487H88.3948V18.2207H88.7948C89.2001 18.2207 89.5041 18.1033 89.7068 17.8687C89.9201 17.6233 90.0268 17.3087 90.0268 16.9247V15.9007H92.2028ZM104.73 26.4127C103.066 26.4127 101.668 25.8687 100.538 24.7807C99.407 23.682 98.8416 22.2633 98.8416 20.5247C98.8416 18.7967 99.4123 17.378 100.554 16.2687C101.695 15.1487 103.076 14.5887 104.698 14.5887C105.508 14.5887 106.239 14.7113 106.89 14.9567C107.551 15.1913 108.084 15.506 108.49 15.9007C108.895 16.2953 109.22 16.7007 109.466 17.1167C109.711 17.5327 109.882 17.9647 109.978 18.4127L107.594 19.1647C107.54 18.9407 107.455 18.722 107.338 18.5087C107.22 18.2847 107.055 18.0607 106.842 17.8367C106.628 17.602 106.335 17.4153 105.962 17.2767C105.588 17.1273 105.167 17.0527 104.698 17.0527C103.844 17.0527 103.092 17.3567 102.442 17.9647C101.791 18.562 101.466 19.4153 101.466 20.5247C101.466 21.5487 101.786 22.3647 102.426 22.9727C103.066 23.5807 103.834 23.8847 104.73 23.8847C105.604 23.8847 106.282 23.666 106.762 23.2287C107.242 22.7913 107.556 22.3007 107.706 21.7567L110.122 22.4447C110.015 22.882 109.839 23.314 109.594 23.7407C109.359 24.1673 109.034 24.5887 108.618 25.0047C108.212 25.4207 107.668 25.762 106.986 26.0287C106.314 26.2847 105.562 26.4127 104.73 26.4127ZM111.045 23.9807C111.045 23.3087 111.264 22.77 111.701 22.3647C112.138 21.9487 112.704 21.6873 113.397 21.5807L115.269 21.2927C115.653 21.2393 115.845 21.058 115.845 20.7487C115.845 20.5033 115.738 20.3007 115.525 20.1407C115.322 19.97 115.04 19.8847 114.677 19.8847C114.272 19.8847 113.946 20.002 113.701 20.2367C113.466 20.4607 113.338 20.7327 113.317 21.0527L111.205 20.6207C111.258 19.9593 111.584 19.3567 112.181 18.8127C112.789 18.258 113.626 17.9807 114.693 17.9807C115.898 17.9807 116.784 18.2687 117.349 18.8447C117.925 19.4207 118.213 20.1567 118.213 21.0527V24.9407C118.213 25.442 118.245 25.8527 118.309 26.1727H116.117C116.064 25.9593 116.037 25.6607 116.037 25.2767C115.578 26.0233 114.832 26.3967 113.797 26.3967C112.954 26.3967 112.282 26.162 111.781 25.6927C111.29 25.2127 111.045 24.642 111.045 23.9807ZM114.389 24.6367C114.805 24.6367 115.152 24.514 115.429 24.2687C115.706 24.0233 115.845 23.618 115.845 23.0527V22.7007L114.341 22.9407C113.744 23.0367 113.445 23.33 113.445 23.8207C113.445 24.0447 113.52 24.2367 113.669 24.3967C113.829 24.5567 114.069 24.6367 114.389 24.6367ZM122.692 29.2127H120.26V18.2207H122.612V19.0367C122.793 18.7593 123.092 18.5247 123.508 18.3327C123.934 18.13 124.414 18.0287 124.948 18.0287C126.078 18.0287 126.974 18.418 127.635 19.1967C128.308 19.9647 128.644 20.9567 128.644 22.1727C128.644 23.3887 128.286 24.3913 127.572 25.1807C126.868 25.9593 125.961 26.3487 124.852 26.3487C123.849 26.3487 123.129 26.082 122.692 25.5487V29.2127ZM125.732 23.6607C126.084 23.3087 126.26 22.818 126.26 22.1887C126.26 21.5593 126.084 21.074 125.732 20.7327C125.39 20.3913 124.964 20.2207 124.452 20.2207C123.95 20.2207 123.524 20.3913 123.172 20.7327C122.83 21.074 122.66 21.5593 122.66 22.1887C122.66 22.818 122.83 23.3087 123.172 23.6607C123.524 24.002 123.95 24.1727 124.452 24.1727C124.964 24.1727 125.39 24.002 125.732 23.6607ZM132.645 26.1727H130.213V18.2207H132.645V26.1727ZM130.421 16.7967C130.143 16.5193 130.005 16.1833 130.005 15.7887C130.005 15.394 130.143 15.058 130.421 14.7807C130.698 14.5033 131.029 14.3647 131.413 14.3647C131.807 14.3647 132.143 14.5033 132.421 14.7807C132.709 15.058 132.853 15.394 132.853 15.7887C132.853 16.1833 132.709 16.5193 132.421 16.7967C132.143 17.074 131.807 17.2127 131.413 17.2127C131.029 17.2127 130.698 17.074 130.421 16.7967ZM137.687 15.9007V18.2207H139.239V20.3487H137.687V23.3247C137.687 23.8793 137.98 24.1567 138.567 24.1567C138.759 24.1567 138.972 24.13 139.207 24.0767V26.0927C138.908 26.242 138.487 26.3167 137.943 26.3167C137.122 26.3167 136.471 26.0873 135.991 25.6287C135.522 25.17 135.287 24.546 135.287 23.7567V20.3487H133.879V18.2207H134.279C134.684 18.2207 134.988 18.1033 135.191 17.8687C135.404 17.6233 135.511 17.3087 135.511 16.9247V15.9007H137.687ZM140.545 23.9807C140.545 23.3087 140.764 22.77 141.201 22.3647C141.638 21.9487 142.204 21.6873 142.897 21.5807L144.769 21.2927C145.153 21.2393 145.345 21.058 145.345 20.7487C145.345 20.5033 145.238 20.3007 145.025 20.1407C144.822 19.97 144.54 19.8847 144.177 19.8847C143.772 19.8847 143.446 20.002 143.201 20.2367C142.966 20.4607 142.838 20.7327 142.817 21.0527L140.705 20.6207C140.758 19.9593 141.084 19.3567 141.681 18.8127C142.289 18.258 143.126 17.9807 144.193 17.9807C145.398 17.9807 146.284 18.2687 146.849 18.8447C147.425 19.4207 147.713 20.1567 147.713 21.0527V24.9407C147.713 25.442 147.745 25.8527 147.809 26.1727H145.617C145.564 25.9593 145.537 25.6607 145.537 25.2767C145.078 26.0233 144.332 26.3967 143.297 26.3967C142.454 26.3967 141.782 26.162 141.281 25.6927C140.79 25.2127 140.545 24.642 140.545 23.9807ZM143.889 24.6367C144.305 24.6367 144.652 24.514 144.929 24.2687C145.206 24.0233 145.345 23.618 145.345 23.0527V22.7007L143.841 22.9407C143.244 23.0367 142.945 23.33 142.945 23.8207C142.945 24.0447 143.02 24.2367 143.169 24.3967C143.329 24.5567 143.569 24.6367 143.889 24.6367ZM152.192 26.1727H149.76V14.5887H152.192V26.1727Z" fill="#06397E"/>
<path d="M39.3994 15.1834C38.2289 10.629 35.4145 6.63907 31.4725 3.94567C27.5305 1.25227 22.7253 0.035984 17.9385 0.51997C13.1516 1.00396 8.70413 3.15575 5.41198 6.58057C2.11982 10.0054 0.203763 14.4736 0.015336 19.1654C-0.173091 23.8572 1.37875 28.4579 4.38615 32.1236C7.39354 35.7892 11.6548 38.274 16.3882 39.1219C21.1215 39.9699 26.0096 39.1242 30.1555 36.74C34.3014 34.3558 37.4272 30.593 38.9593 26.1419L35.4155 24.9806C34.1697 28.5997 31.6282 31.6592 28.2572 33.5977C24.8863 35.5363 20.9119 36.2239 17.0633 35.5345C13.2147 34.845 9.74994 32.8247 7.30468 29.8442C4.85943 26.8638 3.59766 23.123 3.75086 19.3082C3.90407 15.4934 5.46198 11.8604 8.13877 9.07573C10.8156 6.29107 14.4317 4.54149 18.3238 4.14798C22.2159 3.75446 26.1229 4.74339 29.3281 6.93334C32.5332 9.12329 34.8216 12.3674 35.7733 16.0705L39.3994 15.1834Z" fill="#06397E"/>
<path d="M6.76577 23.1671C7.56429 26.2742 9.48429 28.9961 12.1735 30.8335C14.8628 32.671 18.1409 33.5007 21.4065 33.1706C24.6721 32.8404 27.7062 31.3724 29.9521 29.036C32.198 26.6996 33.5052 23.6514 33.6337 20.4506C33.7623 17.2498 32.7036 14.1112 30.652 11.6105C28.6003 9.10974 25.6932 7.41465 22.4641 6.83618C19.235 6.25771 15.9004 6.83465 13.072 8.46116C10.2437 10.0877 8.11126 12.6547 7.06601 15.6912L10.2886 16.7472C11.0734 14.4672 12.6745 12.5398 14.7982 11.3185C16.9219 10.0973 19.4256 9.66409 21.8502 10.0984C24.2748 10.5328 26.4575 11.8055 27.998 13.6832C29.5385 15.5608 30.3334 17.9175 30.2368 20.3207C30.1403 22.724 29.1589 25.0127 27.4725 26.767C25.7862 28.5213 23.5081 29.6235 21.0561 29.8714C18.6041 30.1194 16.1428 29.4963 14.1236 28.1167C12.1044 26.7371 10.6627 24.6933 10.0632 22.3604L6.76577 23.1671Z" fill="#06397E"/>
</svg>
