<?xml version="1.0" standalone="no"?>
<!DOCTYPE svg PUBLIC "-//W3C//DTD SVG 20010904//EN"
 "http://www.w3.org/TR/2001/REC-SVG-20010904/DTD/svg10.dtd">
<svg version="1.0" xmlns="http://www.w3.org/2000/svg"
 width="700.000000pt" height="700.000000pt" viewBox="0 0 700.000000 700.000000"
 preserveAspectRatio="xMidYMid meet">
<metadata>
Created by potrace 1.14, written by Peter Selinger 2001-2017
</metadata>
<g transform="translate(0.000000,700.000000) scale(0.100000,-0.100000)"
fill="#000000" stroke="none">
<path d="M3249 6996 c-2 -2 -42 -6 -89 -10 -47 -4 -96 -8 -110 -10 -14 -3 -74
-12 -135 -21 -239 -36 -557 -126 -782 -221 -1040 -441 -1783 -1320 -2042
-2414 -30 -128 -32 -138 -56 -296 -24 -162 -30 -254 -29 -494 0 -241 6 -336
29 -487 3 -18 7 -50 10 -70 29 -203 120 -521 217 -758 388 -945 1181 -1673
2162 -1984 97 -31 306 -84 376 -96 19 -3 42 -8 50 -10 17 -4 77 -14 135 -20
22 -3 51 -7 65 -10 114 -20 536 -27 725 -12 54 5 101 10 105 12 3 1 30 6 60 9
60 7 104 14 136 21 12 3 39 7 60 11 21 3 100 21 174 40 999 255 1814 916 2265
1836 81 166 178 409 167 419 -6 6 -569 197 -596 202 -5 1 -24 -36 -42 -83 -47
-119 -42 -108 -127 -280 -318 -649 -908 -1163 -1607 -1402 -436 -149 -949
-188 -1390 -107 -93 17 -103 19 -170 35 -235 57 -426 129 -646 243 -526 273
-951 705 -1214 1231 -23 47 -48 97 -56 111 -25 47 -103 265 -133 370 -44 151
-79 326 -98 489 -10 85 -10 494 0 590 58 536 276 1061 614 1480 140 173 355
377 523 496 30 21 57 41 60 44 21 24 211 135 350 205 189 95 467 196 610 222
14 2 45 9 70 14 80 19 203 39 280 46 152 16 636 7 693 -12 7 -2 28 -6 47 -9
51 -8 88 -15 150 -28 30 -6 60 -12 65 -14 37 -7 186 -52 270 -81 283 -98 570
-255 812 -445 114 -90 311 -278 394 -378 30 -36 57 -67 60 -70 15 -12 156
-213 205 -293 117 -189 227 -435 299 -671 34 -114 35 -114 80 -103 482 118
575 143 575 156 0 8 -14 62 -31 120 -95 331 -266 691 -468 986 -415 607 -1028
1074 -1730 1316 -144 50 -326 99 -421 115 -19 3 -38 8 -41 9 -7 5 -181 32
-249 40 -30 3 -71 8 -90 11 -39 5 -536 14 -541 10z"/>
<path d="M3288 5895 c-2 -2 -30 -6 -63 -9 -828 -86 -1546 -596 -1900 -1349
-55 -119 -103 -243 -95 -250 3 -2 128 -45 278 -95 269 -90 273 -90 282 -69 40
103 93 218 139 297 234 411 632 713 1096 833 166 43 243 52 440 52 184 -1 251
-7 390 -40 535 -126 960 -461 1199 -945 89 -179 130 -312 171 -550 3 -19 8
-109 10 -200 3 -166 -1 -218 -32 -395 -19 -109 -86 -301 -153 -435 -176 -352
-453 -624 -815 -800 -177 -87 -368 -143 -562 -167 -73 -10 -328 -10 -408 -1
-521 59 -1000 356 -1287 798 -59 90 -137 240 -163 312 -36 98 -65 190 -65 203
0 20 -5 19 -123 -11 -56 -14 -109 -27 -117 -29 -16 -3 -243 -60 -301 -76 l-36
-9 18 -69 c32 -118 100 -290 169 -426 358 -709 1060 -1193 1855 -1281 91 -10
391 -11 480 -1 558 59 1057 297 1448 690 340 341 578 806 653 1273 35 220 39
541 9 719 -2 17 -7 48 -10 70 -4 22 -21 102 -40 177 -166 667 -621 1232 -1240
1538 -198 98 -422 174 -605 206 -25 4 -47 8 -50 9 -3 1 -32 5 -65 9 -32 4 -68
10 -80 13 -21 5 -422 12 -427 8z"/>
</g>
</svg>
