<svg width="45" height="45" viewBox="0 0 45 45" fill="none" xmlns="http://www.w3.org/2000/svg">
<g clip-path="url(#clip0)">
<path d="M22.5 0C13.0497 0 5.36133 7.68841 5.36133 17.1387C5.36133 23.1937 8.51766 28.5255 13.2715 31.5751V43.6816C13.2715 44.1679 13.5391 44.6146 13.9678 44.844C14.3965 45.0735 14.9166 45.0483 15.3211 44.7786L22.5 39.9927L29.6789 44.7786C30.0832 45.0482 30.6033 45.0736 31.0322 44.844C31.4609 44.6146 31.7285 44.1679 31.7285 43.6816V31.5751C36.4823 28.5255 39.6387 23.1937 39.6387 17.1387C39.6387 7.68841 31.9503 0 22.5 0ZM29.0918 41.2182L23.2313 37.3112C22.7885 37.016 22.2115 37.016 21.7687 37.3112L15.9082 41.2182V32.9582C17.9385 33.8074 20.1653 34.2773 22.5 34.2773C24.8347 34.2773 27.0615 33.8074 29.0918 32.9582V41.2182ZM22.5 31.6406C14.5036 31.6406 7.99805 25.135 7.99805 17.1387C7.99805 9.14229 14.5036 2.63672 22.5 2.63672C30.4964 2.63672 37.002 9.14229 37.002 17.1387C37.002 25.135 30.4965 31.6406 22.5 31.6406Z" fill="#6FCF97"/>
<path d="M32.9842 14.0545C32.83 13.5731 32.4143 13.2223 31.9137 13.1513L26.2181 12.3432L23.6766 7.3154C23.4523 6.87164 22.9973 6.5918 22.5 6.5918C22.0027 6.5918 21.5478 6.87164 21.3234 7.3154L18.782 12.3432L13.0863 13.1513C12.5859 13.2223 12.1701 13.5731 12.0159 14.0545C11.8617 14.5359 11.9965 15.0631 12.3626 15.4115L16.465 19.3158L15.498 24.8207C15.4115 25.3136 15.6114 25.813 16.0143 26.1099C16.4171 26.4069 16.9533 26.4502 17.3986 26.2217L22.5 23.6031L27.6015 26.2217C28.0476 26.4507 28.5837 26.4065 28.9857 26.11C29.3885 25.8131 29.5885 25.3137 29.502 24.8208L28.535 19.3159L32.6374 15.4116C33.0036 15.0631 33.1383 14.536 32.9842 14.0545ZM26.2054 17.893C25.8857 18.1973 25.7394 18.6414 25.8158 19.0761L26.4462 22.665L23.1021 20.9484C22.7241 20.7544 22.2759 20.7544 21.898 20.9484L18.5538 22.665L19.1843 19.0761C19.2606 18.6414 19.1144 18.1973 18.7946 17.893L16.1534 15.3793L19.8334 14.8572C20.2601 14.7967 20.6304 14.5313 20.8248 14.1467L22.5 10.8325L24.1752 14.1466C24.3696 14.5313 24.7398 14.7967 25.1666 14.8571L28.8467 15.3792L26.2054 17.893Z" fill="#6FCF97"/>
</g>
<defs>
<clipPath id="clip0">
<rect width="45" height="45" fill="white"/>
</clipPath>
</defs>
</svg>
