<svg width="44" height="44" viewBox="0 0 44 44" fill="none" xmlns="http://www.w3.org/2000/svg">
<path d="M41.7362 34.5764L41.25 34.0902V19.25C41.2473 17.1652 40.517 15.1468 39.1852 13.5429C37.8534 11.9389 36.0035 10.8501 33.9548 10.4643L34.2473 9.73276C34.787 8.38688 35.0637 6.95004 35.0625 5.5C35.0625 5.31766 34.9901 5.1428 34.8611 5.01387C34.7322 4.88494 34.5573 4.8125 34.375 4.8125H23.375C23.1927 4.8125 23.0178 4.88494 22.8889 5.01387C22.7599 5.1428 22.6875 5.31766 22.6875 5.5C22.6863 6.95005 22.963 8.3869 23.5026 9.7328L23.7952 10.4643C21.7465 10.8501 19.8966 11.9389 18.5648 13.5429C17.233 15.1468 16.5027 17.1652 16.5 19.25V20.625H14.4375C14.2552 20.625 14.0803 20.6974 13.9514 20.8264C13.8224 20.9553 13.75 21.1302 13.75 21.3125V22.6875C13.7488 23.7811 13.3138 24.8296 12.5405 25.603C11.7671 26.3763 10.7186 26.8113 9.625 26.8125H2.0625C1.88016 26.8125 1.7053 26.8849 1.57637 27.0139C1.44744 27.1428 1.375 27.3177 1.375 27.5V38.5C1.375 38.6823 1.44744 38.8572 1.57637 38.9861C1.7053 39.1151 1.88016 39.1875 2.0625 39.1875H41.9375C42.1198 39.1875 42.2947 39.1151 42.4236 38.9861C42.5526 38.8572 42.625 38.6823 42.625 38.5V36.7223C42.6261 36.3236 42.5481 35.9286 42.3955 35.5603C42.243 35.1919 42.0188 34.8575 41.7362 34.5764ZM24.7793 9.22212C24.3907 8.25312 24.1567 7.2291 24.0858 6.1875H33.6642C33.5933 7.2291 33.3593 8.25312 32.9707 9.22212L32.5334 10.3153C32.46 10.3135 32.3863 10.3126 32.3125 10.3125H25.4375C25.3636 10.3125 25.29 10.3134 25.2166 10.3153L24.7793 9.22212ZM15.125 22.6875V22H19.25V22.6875C19.2488 23.7811 18.8138 24.8296 18.0405 25.603C17.2671 26.3763 16.2186 26.8113 15.125 26.8125H13.2571C13.844 26.2974 14.3143 25.663 14.6364 24.9517C14.9585 24.2403 15.1251 23.4684 15.125 22.6875ZM11 28.1875H15.125V37.8125H11V28.1875ZM23.375 32.3125H16.5V30.9375H23.375V32.3125ZM16.5 33.6875H23.375V35.0625H16.5V33.6875ZM23.375 29.5625H16.5V28.1875H23.375V29.5625ZM2.75 28.1875H9.625V29.5625H4.125V30.9375H9.625V32.3125H4.125V33.6875H9.625V35.0625H4.125V36.4375H9.625V37.8125H2.75V28.1875ZM16.5 37.8125V36.4375H23.375V37.8125H16.5ZM41.25 37.8125H24.75V27.5C24.75 27.3177 24.6776 27.1428 24.5486 27.0139C24.4197 26.8849 24.2448 26.8125 24.0625 26.8125H18.7571C19.344 26.2974 19.8143 25.663 20.1364 24.9517C20.4585 24.2403 20.6251 23.4684 20.625 22.6875V21.3125C20.625 21.1302 20.5526 20.9553 20.4236 20.8264C20.2947 20.6974 20.1198 20.625 19.9375 20.625H17.875V19.25C17.8773 17.245 18.6747 15.3228 20.0925 13.905C21.5103 12.4873 23.4325 11.6898 25.4375 11.6875H32.3125C34.3175 11.6898 36.2397 12.4873 37.6575 13.905C39.0752 15.3228 39.8727 17.245 39.875 19.25V33.6875H37.125V35.0625H40.2777L40.7638 35.5486C40.9184 35.7024 41.041 35.8853 41.1245 36.0867C41.2079 36.2882 41.2506 36.5042 41.25 36.7223V37.8125Z" fill="#34DBA1" stroke="#34DBA1" stroke-width="0.5"/>
<path d="M29.5625 23.6327H28.1875C27.914 23.6327 27.6517 23.524 27.4583 23.3306C27.2649 23.1372 27.1562 22.8749 27.1562 22.6014C27.1562 22.3279 27.2649 22.0657 27.4583 21.8723C27.6517 21.6789 27.914 21.5702 28.1875 21.5702H30.9375V20.1953H29.5625V18.8203H28.1875V20.1953C27.5493 20.1953 26.9373 20.4488 26.486 20.9C26.0348 21.3513 25.7813 21.9633 25.7812 22.6014C25.7813 23.2396 26.0348 23.8516 26.486 24.3029C26.9373 24.7541 27.5493 25.0076 28.1875 25.0076H29.5625C29.836 25.0076 30.0983 25.1163 30.2917 25.3097C30.4851 25.503 30.5938 25.7653 30.5938 26.0388C30.5938 26.3123 30.4851 26.5746 30.2917 26.768C30.0983 26.9614 29.836 27.0701 29.5625 27.0701H26.125V28.445H28.1875V29.5406H29.5625V28.445C30.2007 28.445 30.8127 28.1915 31.264 27.7403C31.7152 27.289 31.9688 26.677 31.9688 26.0388C31.9688 25.4007 31.7152 24.7887 31.264 24.3374C30.8127 23.8862 30.2007 23.6327 29.5625 23.6327Z" fill="#34DBA1"/>
</svg>
