<svg width="44" height="44" viewBox="0 0 44 44" fill="none" xmlns="http://www.w3.org/2000/svg">
<path d="M12.6243 38.2746C12.4283 38.614 12.0728 38.8036 11.7071 38.8036C11.5274 38.8036 11.3457 38.7577 11.1789 38.6616C4.78391 34.9678 0.811129 28.0905 0.81134 20.7133C0.81134 16.4648 2.08827 12.3991 4.45801 8.96832L3.11548 7.64209C2.82513 7.35534 2.72567 6.92702 2.85984 6.54166C2.99401 6.15608 3.33811 5.88224 3.74378 5.8378L8.24583 5.34409C8.56305 5.30854 8.87815 5.419 9.1048 5.64311C9.33145 5.86701 9.44509 6.18126 9.41419 6.49827L8.97529 11.006C8.93572 11.4123 8.66611 11.7596 8.28223 11.8984C8.16478 11.941 8.0431 11.9617 7.92247 11.9617C7.64863 11.9617 7.38008 11.8555 7.17862 11.6563L5.991 10.4831C3.99942 13.4962 2.92756 17.0277 2.92756 20.7136C2.92756 27.3373 6.49466 33.5124 12.2374 36.8292C12.7434 37.1214 12.9167 37.7686 12.6243 38.2746ZM41.1797 19.6121C40.5954 19.6121 40.1216 20.0857 40.1216 20.6702V20.7133C40.1216 30.9679 31.779 39.3105 21.5245 39.3105C21.1493 39.3105 20.7747 39.2986 20.4012 39.2764L20.8056 37.6568C20.9044 37.2609 20.7666 36.8432 20.4518 36.5839C20.1364 36.3241 19.7003 36.2695 19.3308 36.4421L15.2285 38.3611C14.9399 38.4964 14.7274 38.7541 14.6504 39.0633C14.5733 39.3725 14.6393 39.6998 14.8307 39.9546L17.5496 43.577C17.7519 43.8464 18.067 44 18.3959 44C18.4655 44 18.5359 43.9932 18.6058 43.9788C19.006 43.898 19.3238 43.5943 19.4226 43.1982L19.8816 41.3596C20.4274 41.4026 20.9755 41.4267 21.5251 41.4267C32.9465 41.4267 42.2384 32.1348 42.2384 20.7057V20.6702C42.2378 20.0857 41.764 19.6121 41.1797 19.6121ZM42.8016 10.9373C42.486 10.6784 42.0499 10.6241 41.6802 10.798L40.0962 11.5429C36.6546 4.59854 29.4757 0 21.5245 0C17.8721 0.000211622 14.2813 0.96415 11.1398 2.7877C10.6344 3.08121 10.4626 3.72857 10.7559 4.23392C11.0492 4.73927 11.6963 4.91174 12.2021 4.6178C15.0213 2.98154 18.245 2.11643 21.5247 2.11622C28.6502 2.11622 35.0848 6.22888 38.1814 12.4434L36.5117 13.2287C36.1423 13.4022 35.9059 13.773 35.904 14.1812C35.9021 14.5894 36.1351 14.9623 36.5029 15.1394L40.5831 17.105C40.7283 17.1748 40.8853 17.2097 41.0424 17.2097C41.1962 17.2097 41.3501 17.1763 41.4927 17.109C41.7811 16.9733 41.993 16.7152 42.0696 16.4058L43.1577 12.0095C43.2557 11.6134 43.1171 11.1961 42.8016 10.9373ZM14.9851 29.3776C14.4009 29.3776 13.927 28.904 13.927 28.3195C13.927 27.735 14.4009 27.2613 14.9851 27.2613H20.4666V21.5602H18.8932C16.155 21.5602 13.927 19.3325 13.927 16.5941C13.927 13.8545 16.1548 11.6265 18.8932 11.6265H20.4666V10.4105C20.4666 9.82603 20.9404 9.35242 21.5247 9.35242C22.109 9.35242 22.5828 9.82603 22.5828 10.4105V11.6265H28.0642C28.6485 11.6265 29.1223 12.1001 29.1223 12.6846C29.1223 13.2691 28.6485 13.7427 28.0642 13.7427H22.5828V19.4438H24.1554C26.8942 19.4438 29.1223 21.672 29.1223 24.4108C29.1223 27.1496 26.8942 29.3776 24.1554 29.3776H22.5828V31.0157C22.5828 31.6002 22.109 32.0738 21.5247 32.0738C20.9404 32.0738 20.4666 31.6002 20.4666 31.0157V29.3776H14.9851ZM18.8932 19.444H20.4666V13.7427H18.8932C17.3217 13.7427 16.0432 15.0211 16.0432 16.5926C16.0432 18.1656 17.3217 19.444 18.8932 19.444ZM22.5828 27.2613H24.1554C25.7273 27.2613 27.0061 25.9825 27.0061 24.4108C27.0061 22.8389 25.7273 21.56 24.1554 21.56H22.5828V27.2613Z" fill="#34DBA1"/>
</svg>
