<svg width="44" height="44" viewBox="0 0 44 44" fill="none" xmlns="http://www.w3.org/2000/svg">
<g clip-path="url(#clip0)">
<path d="M8.61572 37.5236C11.8751 41.656 17.314 43.9999 22.7743 43.9999C24.9877 44.0084 27.1837 43.6075 29.2513 42.8174C33.566 41.086 36.8215 37.4346 38.0487 32.9504C39.3446 28.2941 38.4246 23.3005 35.5544 19.4117C35.1671 18.8784 34.735 18.3906 34.3168 17.9188C33.3573 16.8368 32.4513 15.8141 32.2627 14.4174C32.2109 13.5027 32.31 12.5856 32.5562 11.703C32.7445 11.43 32.7261 11.0646 32.5114 10.8118C32.2967 10.5591 31.9391 10.4817 31.6391 10.6232L31.6164 10.6349C29.5929 11.5657 28.1549 13.4299 27.7686 15.6235C27.6538 16.1046 27.5015 16.576 27.3131 17.0334C26.2659 15.8984 25.9365 14.2753 26.4585 12.8218C27.7958 8.66375 26.1775 4.11537 22.3341 1.22723C20.9512 0.153819 19.9734 -0.377297 19.374 0.304174C19.0556 0.695579 19.0145 1.24387 19.2713 1.67821C19.3821 1.95056 19.4741 2.23025 19.5464 2.51522C20.2537 5.33744 18.9999 8.4626 16.191 10.8783C15.6965 11.306 15.1955 11.7271 14.6959 12.1474C12.2941 14.1663 9.81087 16.2556 8.09346 19.047C4.29255 25.2159 4.49067 32.2952 8.61572 37.5236ZM15.6437 13.2706C16.1491 12.8452 16.6553 12.4204 17.1527 11.9898C20.3901 9.20578 21.8184 5.53412 20.9725 2.1595C20.9601 2.10888 20.9469 2.06049 20.9344 2.01282C21.0811 2.11916 21.255 2.2468 21.4479 2.39868C24.788 4.90471 26.2046 8.81992 25.0558 12.3757C24.061 15.4319 25.6295 17.4955 26.8957 18.7815C27.042 18.9331 27.2472 19.0135 27.4576 19.0016C27.6676 18.9905 27.8626 18.8898 27.9931 18.7251C28.5786 17.916 28.9826 16.9902 29.1779 16.0107C29.3806 14.8198 29.9654 13.7272 30.8439 12.898C30.7807 13.4675 30.7666 14.0413 30.8021 14.6132C31.0516 16.453 32.1505 17.6943 33.2135 18.8915C33.6258 19.3567 34.0161 19.7968 34.3609 20.2729C36.9685 23.7981 37.8073 28.3276 36.6351 32.5527C35.5335 36.5941 32.603 39.8865 28.7166 41.4491C22.1068 44.0087 13.9579 41.9303 9.76463 36.6147C6.03572 31.8837 5.87651 25.447 9.34424 19.8151C10.9369 17.2248 13.2214 15.3042 15.64 13.2706H15.6437Z" fill="#6FCF97" stroke="#6FCF97" stroke-width="0.6"/>
<path d="M30.7297 28.811C30.203 26.7104 28.9365 24.8702 27.1626 23.6279C25.3887 22.3857 23.2264 21.8247 21.0723 22.0479C18.9182 22.2712 16.9169 23.2636 15.4354 24.8432C13.9539 26.4228 13.0917 28.4837 13.0069 30.6476C12.9221 32.8116 13.6204 34.9336 14.9738 36.6242C16.3271 38.3149 18.2447 39.4609 20.3747 39.852C22.5047 40.2431 24.7043 39.8531 26.57 38.7534C28.4356 37.6538 29.8422 35.9183 30.5317 33.8653L28.6547 33.235C28.1169 34.8363 27.0198 36.1899 25.5646 37.0477C24.1094 37.9054 22.3937 38.2096 20.7323 37.9046C19.0708 37.5995 17.5751 36.7056 16.5195 35.3869C15.4639 34.0682 14.9192 32.413 14.9854 30.7251C15.0515 29.0373 15.7241 27.4298 16.8796 26.1977C18.0352 24.9656 19.5962 24.1915 21.2764 24.0174C22.9566 23.8433 24.6432 24.2808 26.0269 25.2498C27.4105 26.2188 28.3984 27.6541 28.8092 29.2926L30.7297 28.811Z" fill="#6FCF97"/>
<path d="M16.0444 32.4935C16.4037 33.9265 17.2677 35.1819 18.4778 36.0294C19.688 36.8769 21.1632 37.2596 22.6327 37.1073C24.1022 36.955 25.4676 36.278 26.4782 35.2004C27.4889 34.1227 28.0771 32.7168 28.1349 31.2406C28.1928 29.7643 27.7164 28.3167 26.7931 27.1633C25.8699 26.0099 24.5617 25.2281 23.1086 24.9613C21.6555 24.6945 20.1549 24.9606 18.8822 25.7108C17.6094 26.461 16.6498 27.6449 16.1795 29.0454L17.9256 29.6319C18.2548 28.6515 18.9265 27.8227 19.8175 27.2976C20.7084 26.7725 21.7588 26.5862 22.776 26.773C23.7931 26.9597 24.7089 27.507 25.3551 28.3144C26.0014 29.1217 26.3349 30.1351 26.2944 31.1685C26.2539 32.2018 25.8422 33.186 25.1347 33.9403C24.4272 34.6946 23.4715 35.1686 22.4428 35.2752C21.4142 35.3818 20.3815 35.1139 19.5344 34.5206C18.6873 33.9274 18.0825 33.0486 17.831 32.0455L16.0444 32.4935Z" fill="#6FCF97"/>
<path d="M9.8835 6.83635L9.77125 6.94708C8.51913 8.14106 8.23228 10.0306 9.07359 11.5423C9.43199 12.1555 9.89826 12.6988 10.4499 13.146L10.6765 13.3536C10.8993 13.5603 11.2264 13.6082 11.4991 13.4741C11.7718 13.3401 11.9336 13.0517 11.906 12.7491C11.8121 11.722 12.3792 11.0486 13.1318 10.2762C13.3768 10.0238 13.6453 9.78539 13.9094 9.54622C14.5792 9.00267 15.1614 8.35939 15.6356 7.63883C16.234 6.60004 16.4836 5.39675 16.3479 4.20554C16.1431 2.12973 14.6088 0.430036 12.5647 0.0144804C12.2964 -0.024517 12.0284 0.0876453 11.868 0.306246C11.7075 0.524756 11.6806 0.814017 11.7981 1.05838C12.2114 2.03197 12.268 3.12014 11.9581 4.13148C11.4667 5.17037 10.7594 6.09244 9.8835 6.83635ZM13.3446 4.61135C13.6262 3.77281 13.7031 2.87918 13.5691 2.00487C14.3034 2.58554 14.7781 3.43319 14.8896 4.36269C14.991 5.23852 14.8095 6.12393 14.3717 6.88921C13.9701 7.47945 13.4832 8.00698 12.9273 8.45474C12.6338 8.71591 12.3462 8.97709 12.0777 9.25293C11.4619 9.81759 10.9744 10.5078 10.648 11.277C9.84414 10.3051 9.91087 8.88139 10.802 7.98892L10.9127 7.8789C11.9593 6.98688 12.7906 5.86991 13.3446 4.61135Z" fill="#6FCF97" stroke="#6FCF97" stroke-width="0.4"/>
</g>
<defs>
<clipPath id="clip0">
<rect width="44" height="44" fill="white"/>
</clipPath>
</defs>
</svg>
