<svg width="45" height="45" viewBox="0 0 45 45" fill="none" xmlns="http://www.w3.org/2000/svg">
<path d="M44.3244 17.0276C43.0076 11.7761 39.8413 7.17551 35.4066 4.06987C30.9719 0.964226 25.566 -0.438213 20.1808 0.119846C14.7956 0.67791 9.79215 3.15905 6.08847 7.10806C2.38479 11.0571 0.229233 16.2091 0.017253 21.619C-0.194727 27.0289 1.55109 32.3339 4.93441 36.5606C8.31774 40.7873 13.1117 43.6523 18.4367 44.6301C23.7617 45.6078 29.2608 44.6326 33.9249 41.8835C38.5891 39.1344 42.1056 34.7957 43.8292 29.6633L39.8424 28.3244C38.4409 32.4974 35.5817 36.0251 31.7894 38.2604C27.997 40.4956 23.5259 41.2885 19.1962 40.4935C14.8665 39.6985 10.9687 37.369 8.21777 33.9324C5.46686 30.4957 4.04737 26.1824 4.21972 21.7837C4.39208 17.385 6.14472 13.196 9.15611 9.98512C12.1675 6.77425 16.2357 4.75689 20.6143 4.30314C24.9929 3.84939 29.3883 4.98969 32.9941 7.51482C36.5999 10.04 39.1743 13.7806 40.245 18.0505L44.3244 17.0276Z" fill="#6FCF97"/>
<path d="M7.61151 26.2333C8.50983 29.8159 10.6698 32.9544 13.6952 35.0731C16.7206 37.1917 20.4085 38.1485 24.0823 37.7678C27.7561 37.3871 31.1695 35.6944 33.6962 33.0004C36.2228 30.3064 37.6933 26.7916 37.838 23.101C37.9826 19.4103 36.7916 15.7913 34.4835 12.9078C32.1753 10.0243 28.9049 8.06977 25.2721 7.40276C21.6394 6.73575 17.8879 7.401 14.706 9.27646C11.5241 11.1519 9.12517 14.1118 7.94927 17.6131L11.5747 18.8307C12.4576 16.2018 14.2589 13.9793 16.648 12.5712C19.0371 11.163 21.8539 10.6635 24.5815 11.1643C27.3091 11.6651 29.7647 13.1327 31.4978 15.2977C33.2308 17.4628 34.125 20.1801 34.0165 22.9512C33.9079 25.7223 32.8037 28.3614 30.9066 30.3842C29.0095 32.407 26.4466 33.6779 23.6881 33.9637C20.9297 34.2496 18.1606 33.5312 15.889 31.9404C13.6174 30.3496 11.9956 27.9931 11.3211 25.3031L7.61151 26.2333Z" fill="#6FCF97"/>
</svg>
