<svg width="20" height="20" viewBox="0 0 20 20" fill="none" xmlns="http://www.w3.org/2000/svg">
<path d="M10 20C15.5228 20 20 15.5228 20 10C20 4.47715 15.5228 0 10 0C4.47715 0 0 4.47715 0 10C0 15.5228 4.47715 20 10 20Z" fill="#3E73C4"/>
<path d="M12.5138 11.3277C12.5138 10.0002 11.7138 9.54516 10.1138 9.35516C8.97125 9.20328 8.74313 8.90016 8.74313 8.36891C8.74313 7.83766 9.12438 7.49641 9.88563 7.49641C10.5713 7.49641 10.9525 7.72391 11.1425 8.29328C11.1623 8.34834 11.1985 8.39601 11.2462 8.42986C11.2939 8.46372 11.3509 8.48215 11.4094 8.48266H12.0188C12.054 8.4836 12.089 8.47738 12.1217 8.46438C12.1544 8.45138 12.1842 8.43187 12.2091 8.40703C12.2341 8.38219 12.2537 8.35254 12.2669 8.31988C12.28 8.28722 12.2864 8.25223 12.2856 8.21703V8.17953C12.2112 7.76759 12.0027 7.39178 11.6927 7.11048C11.3827 6.82917 10.9885 6.65813 10.5713 6.62391V5.71391C10.5713 5.56203 10.4569 5.44828 10.2669 5.41016H9.69501C9.54313 5.41016 9.42875 5.52391 9.39063 5.71391V6.58641C8.2475 6.73766 7.52438 7.49641 7.52438 8.44516C7.52438 9.69641 8.28563 10.1895 9.88563 10.3795C10.9525 10.5689 11.295 10.797 11.295 11.4039C11.295 12.0102 10.7619 12.4277 10.0381 12.4277C9.04751 12.4277 8.705 12.0108 8.59063 11.4414C8.55313 11.2902 8.43813 11.2139 8.32375 11.2139H7.67625C7.64111 11.2131 7.60616 11.2193 7.57351 11.2324C7.54086 11.2454 7.5112 11.2649 7.48631 11.2898C7.46142 11.3146 7.44183 11.3442 7.42871 11.3768C7.4156 11.4094 7.40923 11.4444 7.41001 11.4795V11.517C7.56188 12.4658 8.17188 13.1483 9.42876 13.3383V14.2489C9.42876 14.4002 9.54313 14.5145 9.73313 14.552H10.305C10.4569 14.552 10.5713 14.4383 10.6094 14.2489V13.3377C11.7525 13.1483 12.5138 12.3514 12.5138 11.327V11.3277Z" fill="white"/>
<path d="M8.0575 15.3106C5.08625 14.2481 3.5625 10.9481 4.6675 8.0275C5.23875 6.43375 6.49562 5.22062 8.0575 4.65125C8.21 4.57562 8.28562 4.46187 8.28562 4.27188V3.74063C8.28562 3.58938 8.21 3.47563 8.0575 3.4375C8.01937 3.4375 7.94312 3.4375 7.905 3.475C7.04776 3.7427 6.25195 4.17733 5.56339 4.75386C4.87482 5.33039 4.30709 6.03743 3.8929 6.83427C3.47871 7.63111 3.22623 8.50201 3.15 9.39683C3.07377 10.2916 3.1753 11.1927 3.44875 12.0481C4.13375 14.1731 5.77187 15.8044 7.905 16.4869C8.0575 16.5625 8.21 16.4869 8.2475 16.335C8.28562 16.2975 8.28562 16.2587 8.28562 16.1831V15.6519C8.28562 15.5381 8.17187 15.3869 8.0575 15.3106ZM12.095 3.47562C11.9425 3.39937 11.79 3.47562 11.7525 3.62687C11.7144 3.665 11.7144 3.70312 11.7144 3.77875V4.31C11.7144 4.46187 11.8281 4.61312 11.9425 4.68937C14.9137 5.75187 16.4375 9.05188 15.3325 11.9725C14.7612 13.5662 13.5044 14.7794 11.9425 15.3488C11.79 15.4244 11.7144 15.5381 11.7144 15.7281V16.2594C11.7144 16.4106 11.79 16.5244 11.9425 16.5625C11.9806 16.5625 12.0569 16.5625 12.095 16.525C12.9522 16.2573 13.748 15.8227 14.4366 15.2461C15.1252 14.6696 15.6929 13.9626 16.1071 13.1657C16.5213 12.3689 16.7738 11.498 16.85 10.6032C16.9262 9.70835 16.8247 8.80729 16.5512 7.95187C15.8662 5.78937 14.19 4.15812 12.095 3.47562Z" fill="white"/>
</svg>
