<svg width="76" height="68" viewBox="0 0 76 68" fill="none" xmlns="http://www.w3.org/2000/svg">
<path fill-rule="evenodd" clip-rule="evenodd" d="M4.69735 27.9121C5.18853 25.2118 8.05158 23.8238 10.6496 24.7087C13.2476 25.5936 14.579 28.423 14.2576 31.1487C13.9716 33.5751 14.0635 36.0413 14.5393 38.4583C15.3367 42.5088 17.1844 46.2787 19.8973 49.3905C22.6102 52.5022 26.0931 54.8465 29.9971 56.1885C33.9012 57.5306 38.0893 57.8233 42.1421 57.0374C46.1949 56.2514 49.97 54.4144 53.0894 51.7103C56.2088 49.0062 58.5629 45.5299 59.916 41.6297C61.2691 37.7295 61.5737 33.5422 60.7992 29.4872C60.337 27.0676 59.5004 24.7458 58.3281 22.6022C57.0112 20.1942 57.1884 17.0723 59.2673 15.2804C61.3462 13.4885 64.5206 13.7056 65.9855 16.0266C68.2152 19.5592 69.7726 23.4906 70.5617 27.6226C71.419 32.1109 71.3465 36.7131 70.3647 41.1481L75.3157 48.0369L67.6635 48.8014C65.6979 52.7614 62.9613 56.3062 59.5996 59.2204C55.1644 63.0652 49.7967 65.6771 44.0343 66.7946C38.2719 67.9121 32.317 67.4959 26.7661 65.5877C21.2151 63.6795 16.263 60.3463 12.4057 55.9219C8.54832 51.4975 5.9212 46.1373 4.78741 40.3781C3.97487 36.2506 3.94976 32.0221 4.69735 27.9121Z" fill="#DD5631"/>
<path fill-rule="evenodd" clip-rule="evenodd" d="M64.2491 19C61.4044 19 59.0642 21.1596 58.7784 23.9288C58.4219 23.1267 58.0201 22.3437 57.5744 21.5835C56.0095 18.9144 53.9342 16.5796 51.467 14.7125C48.9998 12.8454 46.1889 11.4825 43.195 10.7016C40.2011 9.92082 37.0827 9.73733 34.0179 10.1617C30.953 10.586 28.0018 11.6098 25.3326 13.1747C22.6635 14.7396 20.3287 16.8149 18.4616 19.2822C16.5945 21.7494 15.5299 24.5061 14.7491 27.5C14.3981 28.8461 14.1758 30.2826 14.0761 31.7346C13.8782 34.616 11.8736 37.2553 9.00198 37.5639C6.25168 37.8594 3.72161 35.9101 3.751 33.1441C3.77819 30.5852 4.09856 28.0328 4.70914 25.5376L2.24649e-06 19.0183L7.41665 18.2595C8.30675 16.5172 9.34988 14.852 10.5362 13.2844C13.1909 9.77646 16.5106 6.82571 20.3057 4.60067C24.1009 2.37564 28.2971 0.919891 32.6548 0.316554C37.0125 -0.286782 41.4464 -0.0258952 45.7033 1.08432C49.9602 2.19453 53.9567 4.13233 57.4647 6.78708C60.9727 9.44183 63.9234 12.7615 66.1485 16.5566C66.9251 17.8814 67.6081 19.255 68.1938 20.6673C67.1944 19.6389 65.7964 19 64.2491 19ZM68.4719 28.0242C68.7859 27.6708 69.0417 27.2726 69.2264 26.8434C69.0252 27.2698 68.7709 27.6663 68.4719 28.0242Z" fill="white"/>
<path d="M31.04 41.3C29 41.3 27.28 40.62 25.88 39.26C24.48 37.9 23.78 36.12 23.78 33.92C23.78 31.7333 24.4867 29.9533 25.9 28.58C27.3267 27.2067 29.0267 26.52 31 26.52C32.8133 26.52 34.2667 26.98 35.36 27.9C36.4667 28.82 37.18 29.9267 37.5 31.22L34.9 32.04C34.7 31.24 34.28 30.5667 33.64 30.02C33 29.46 32.12 29.18 31 29.18C29.84 29.18 28.82 29.5933 27.94 30.42C27.0733 31.2467 26.64 32.4133 26.64 33.92C26.64 35.36 27.0667 36.5 27.92 37.34C28.7867 38.18 29.8267 38.6 31.04 38.6C32.1467 38.6 33.0267 38.3133 33.68 37.74C34.3467 37.1667 34.7933 36.4867 35.02 35.7L37.6 36.48C37.4533 37.0533 37.2133 37.6133 36.88 38.16C36.56 38.7067 36.14 39.22 35.62 39.7C35.1 40.18 34.44 40.5667 33.64 40.86C32.8533 41.1533 31.9867 41.3 31.04 41.3ZM46.1767 41.3C44.1367 41.3 42.4167 40.62 41.0167 39.26C39.6167 37.9 38.9167 36.12 38.9167 33.92C38.9167 31.7333 39.6234 29.9533 41.0367 28.58C42.4634 27.2067 44.1634 26.52 46.1367 26.52C47.9501 26.52 49.4034 26.98 50.4967 27.9C51.6034 28.82 52.3167 29.9267 52.6367 31.22L50.0367 32.04C49.8367 31.24 49.4167 30.5667 48.7767 30.02C48.1367 29.46 47.2567 29.18 46.1367 29.18C44.9767 29.18 43.9567 29.5933 43.0767 30.42C42.2101 31.2467 41.7767 32.4133 41.7767 33.92C41.7767 35.36 42.2034 36.5 43.0567 37.34C43.9234 38.18 44.9634 38.6 46.1767 38.6C47.2834 38.6 48.1634 38.3133 48.8167 37.74C49.4834 37.1667 49.9301 36.4867 50.1567 35.7L52.7367 36.48C52.5901 37.0533 52.3501 37.6133 52.0167 38.16C51.6967 38.7067 51.2767 39.22 50.7567 39.7C50.2367 40.18 49.5767 40.5667 48.7767 40.86C47.9901 41.1533 47.1234 41.3 46.1767 41.3Z" fill="white"/>
</svg>
