<svg width="53" height="53" viewBox="0 0 53 53" fill="none" xmlns="http://www.w3.org/2000/svg">
<path d="M51.6798 19.8535C50.1445 13.7305 46.4528 8.3665 41.2822 4.74549C36.1115 1.12447 29.8085 -0.510693 23.5297 0.139977C17.2508 0.790646 11.4171 3.68351 7.09882 8.28785C2.78054 12.8922 0.267273 18.8992 0.020116 25.2069C-0.227041 31.5145 1.80849 37.6998 5.75326 42.6279C9.69802 47.556 15.2875 50.8965 21.4962 52.0364C27.7049 53.1764 34.1165 52.0395 39.5546 48.8341C44.9927 45.6288 49.0928 40.5701 51.1025 34.5861L46.454 33.0249C44.82 37.8904 41.4863 42.0035 37.0647 44.6097C32.643 47.2159 27.4299 48.1404 22.3817 47.2135C17.3336 46.2866 12.7889 43.5705 9.58147 39.5635C6.37405 35.5566 4.71901 30.5275 4.91996 25.3989C5.12092 20.2702 7.16441 15.386 10.6755 11.6423C14.1866 7.89865 18.9299 5.54651 24.0351 5.01746C29.1404 4.48842 34.2651 5.81794 38.4693 8.76212C42.6735 11.7063 45.6751 16.0677 46.9234 21.0461L51.6798 19.8535Z" fill="#06397E"/>
<path d="M8.87474 30.5865C9.92215 34.7636 12.4406 38.423 15.968 40.8932C19.4955 43.3635 23.7954 44.479 28.0788 44.0351C32.3623 43.5912 36.3421 41.6177 39.288 38.4766C42.234 35.3355 43.9485 31.2375 44.1171 26.9344C44.2857 22.6313 42.8971 18.4117 40.206 15.0497C37.5148 11.6877 33.7017 9.40886 29.4661 8.63117C25.2305 7.85347 20.8565 8.62911 17.1466 10.8158C13.4367 13.0025 10.6396 16.4535 9.26857 20.5359L13.4956 21.9555C14.5251 18.8903 16.6252 16.2991 19.4108 14.6572C22.1964 13.0154 25.4805 12.433 28.6608 13.0169C31.8411 13.6009 34.7042 15.3119 36.7248 17.8363C38.7454 20.3606 39.7881 23.5289 39.6615 26.7598C39.5349 29.9908 38.2475 33.0677 36.0356 35.4262C33.8236 37.7847 30.8354 39.2665 27.6192 39.5998C24.403 39.9331 21.1744 39.0955 18.5259 37.2407C15.8773 35.3859 13.9864 32.6383 13.1999 29.502L8.87474 30.5865Z" fill="#06397E"/>
</svg>
