<svg width="40" height="40" viewBox="0 0 40 40" fill="none" xmlns="http://www.w3.org/2000/svg">
<path d="M39.3994 15.1356C38.2289 10.4676 35.4145 6.37824 31.4725 3.61766C27.5305 0.85709 22.7253 -0.389523 17.9385 0.106531C13.1516 0.602586 8.70413 2.80804 5.41198 6.31828C2.11982 9.82851 0.203763 14.4081 0.015336 19.2169C-0.173091 24.0257 1.37875 28.7412 4.38615 32.4983C7.39354 36.2554 11.6548 38.8021 16.3882 39.6712C21.1215 40.5403 26.0096 39.6735 30.1555 37.2298C34.3014 34.7861 37.4272 30.9295 38.9593 26.3674L35.4155 25.1772C34.1697 28.8866 31.6282 32.0223 28.2572 34.0092C24.8863 35.9961 20.9119 36.7009 17.0633 35.9942C13.2147 35.2876 9.74994 33.2169 7.30468 30.1621C4.85943 27.1073 3.59766 23.2732 3.75087 19.3633C3.90407 15.4534 5.46198 11.7298 8.13877 8.87566C10.8156 6.02156 14.4317 4.22835 18.3238 3.82501C22.2159 3.42168 26.1229 4.43528 29.3281 6.67985C32.5332 8.92441 34.8216 12.2494 35.7733 16.0449L39.3994 15.1356Z" fill="#FBFDFF"/>
<path d="M6.76574 23.3185C7.56425 26.503 9.48426 29.2928 12.1735 31.1761C14.8627 33.0594 18.1409 33.9098 21.4065 33.5714C24.6721 33.233 27.7062 31.7284 29.9521 29.3337C32.198 26.939 33.5052 23.8148 33.6337 20.5342C33.7622 17.2537 32.7036 14.0367 30.6519 11.4736C28.6003 8.91055 25.6932 7.17319 22.4641 6.58029C19.235 5.98739 15.9003 6.57872 13.072 8.24579C10.2436 9.91287 8.11123 12.5439 7.06598 15.6561L10.2886 16.7384C11.0734 14.4016 12.6745 12.4261 14.7982 11.1744C16.9218 9.92272 19.4256 9.47872 21.8502 9.92389C24.2747 10.3691 26.4575 11.6736 27.998 13.598C29.5384 15.5225 30.3333 17.9379 30.2368 20.4011C30.1403 22.8643 29.1588 25.2102 27.4725 27.0082C25.7862 28.8062 23.508 29.9359 21.0561 30.19C18.6041 30.4441 16.1427 29.8056 14.1235 28.3915C12.1043 26.9775 10.6627 24.8828 10.0632 22.4917L6.76574 23.3185Z" fill="#FBFDFF"/>
</svg>
