<svg width="100" height="100" viewBox="0 0 100 100" fill="none" xmlns="http://www.w3.org/2000/svg">
<mask id="path-1-inside-1" fill="white">
<path d="M99.0439 50C99.5719 50 100.001 50.4282 99.9909 50.9562C99.7805 61.9589 95.945 72.5954 89.0653 81.2074C81.9865 90.0686 72.1054 96.2599 61.044 98.7651C49.9825 101.27 38.3981 99.9402 28.1921 94.9935C17.9862 90.0468 9.76526 81.7773 4.87877 71.5424C-0.00771427 61.3075 -1.26939 49.7154 1.30086 38.6689C3.87111 27.6224 10.1205 17.778 19.0233 10.7515C27.9261 3.72501 38.9532 -0.0659561 50.2946 0.000867886C61.317 0.0658123 71.9996 3.77083 80.6877 10.5251C81.1046 10.8493 81.1679 11.4521 80.8358 11.8627C80.5038 12.2734 79.9023 12.3363 79.4852 12.0125C71.1346 5.53069 60.8719 1.9755 50.2833 1.91311C39.3757 1.84884 28.7703 5.49482 20.208 12.2526C11.6458 19.0103 5.63533 28.4783 3.16339 39.1023C0.69144 49.7263 1.90486 60.875 6.60446 70.7185C11.3041 80.562 19.2106 88.5152 29.0262 93.2727C38.8418 98.0302 49.9832 99.3093 60.6216 96.9C71.26 94.4907 80.7632 88.5362 87.5712 80.0138C94.1802 71.7408 97.8682 61.5251 98.0782 50.9561C98.0887 50.4282 98.5158 50 99.0439 50Z"/>
</mask>
<path d="M99.0439 50C99.5719 50 100.001 50.4282 99.9909 50.9562C99.7805 61.9589 95.945 72.5954 89.0653 81.2074C81.9865 90.0686 72.1054 96.2599 61.044 98.7651C49.9825 101.27 38.3981 99.9402 28.1921 94.9935C17.9862 90.0468 9.76526 81.7773 4.87877 71.5424C-0.00771427 61.3075 -1.26939 49.7154 1.30086 38.6689C3.87111 27.6224 10.1205 17.778 19.0233 10.7515C27.9261 3.72501 38.9532 -0.0659561 50.2946 0.000867886C61.317 0.0658123 71.9996 3.77083 80.6877 10.5251C81.1046 10.8493 81.1679 11.4521 80.8358 11.8627C80.5038 12.2734 79.9023 12.3363 79.4852 12.0125C71.1346 5.53069 60.8719 1.9755 50.2833 1.91311C39.3757 1.84884 28.7703 5.49482 20.208 12.2526C11.6458 19.0103 5.63533 28.4783 3.16339 39.1023C0.69144 49.7263 1.90486 60.875 6.60446 70.7185C11.3041 80.562 19.2106 88.5152 29.0262 93.2727C38.8418 98.0302 49.9832 99.3093 60.6216 96.9C71.26 94.4907 80.7632 88.5362 87.5712 80.0138C94.1802 71.7408 97.8682 61.5251 98.0782 50.9561C98.0887 50.4282 98.5158 50 99.0439 50Z" fill="#1A2327" stroke="url(#paint0_linear)" stroke-width="2" mask="url(#path-1-inside-1)"/>
<defs>
<linearGradient id="paint0_linear" x1="-2.5277" y1="28.7106" x2="104.986" y2="28.7106" gradientUnits="userSpaceOnUse">
<stop stop-color="#D16BA5"/>
<stop offset="0.0897431" stop-color="#B45FA2"/>
<stop offset="0.204009" stop-color="#95559E"/>
<stop offset="0.33483" stop-color="#744C97"/>
<stop offset="0.457388" stop-color="#40519A"/>
<stop offset="0.589586" stop-color="#2B5DA4"/>
<stop offset="0.732801" stop-color="#0069AB"/>
<stop offset="0.860868" stop-color="#008EC8"/>
<stop offset="0.951754" stop-color="#00B3DC"/>
<stop offset="1" stop-color="#00D7EA"/>
</linearGradient>
</defs>
</svg>
