<svg width="146" height="40" viewBox="0 0 146 40" fill="none" xmlns="http://www.w3.org/2000/svg">
<path d="M39.3994 15.1356C38.2289 10.4676 35.4145 6.37824 31.4725 3.61766C27.5305 0.85709 22.7253 -0.389523 17.9385 0.106531C13.1516 0.602586 8.70413 2.80804 5.41198 6.31828C2.11982 9.82851 0.203763 14.4081 0.015336 19.2169C-0.173091 24.0257 1.37875 28.7412 4.38615 32.4983C7.39354 36.2554 11.6548 38.8021 16.3882 39.6712C21.1215 40.5403 26.0096 39.6735 30.1555 37.2298C34.3014 34.7861 37.4272 30.9295 38.9593 26.3674L35.4155 25.1772C34.1697 28.8866 31.6282 32.0223 28.2572 34.0092C24.8863 35.9961 20.9119 36.7009 17.0633 35.9942C13.2147 35.2876 9.74994 33.2169 7.30468 30.1621C4.85943 27.1073 3.59766 23.2732 3.75087 19.3633C3.90407 15.4534 5.46198 11.7298 8.13877 8.87566C10.8156 6.02156 14.4317 4.22835 18.3238 3.82501C22.2159 3.42168 26.1229 4.43528 29.3281 6.67985C32.5332 8.92441 34.8216 12.2494 35.7733 16.0449L39.3994 15.1356Z" fill="#FBFDFF"/>
<path d="M6.76574 23.3185C7.56425 26.503 9.48426 29.2928 12.1735 31.1761C14.8627 33.0594 18.1409 33.9098 21.4065 33.5714C24.6721 33.233 27.7062 31.7284 29.9521 29.3337C32.198 26.939 33.5052 23.8148 33.6337 20.5342C33.7622 17.2537 32.7036 14.0367 30.6519 11.4736C28.6003 8.91055 25.6932 7.17319 22.4641 6.58029C19.235 5.98739 15.9003 6.57872 13.072 8.24579C10.2436 9.91287 8.11123 12.5439 7.06598 15.6561L10.2886 16.7384C11.0734 14.4016 12.6745 12.4261 14.7982 11.1744C16.9218 9.92272 19.4256 9.47872 21.8502 9.92389C24.2747 10.3691 26.4575 11.6736 27.998 13.598C29.5384 15.5225 30.3333 17.9379 30.2368 20.4011C30.1403 22.8643 29.1588 25.2102 27.4725 27.0082C25.7862 28.8062 23.508 29.9359 21.0561 30.19C18.6041 30.4441 16.1427 29.8056 14.1235 28.3915C12.1043 26.9775 10.6627 24.8828 10.0632 22.4917L6.76574 23.3185Z" fill="#FBFDFF"/>
<path opacity="0.94" d="M52.4 26.24C50.8107 26.24 49.456 25.7013 48.336 24.624C47.2267 23.5467 46.672 22.1173 46.672 20.336C46.672 18.5653 47.2373 17.136 48.368 16.048C49.4987 14.96 50.8373 14.416 52.384 14.416C53.7493 14.416 54.8693 14.7627 55.744 15.456C56.6293 16.1493 57.2107 17.0293 57.488 18.096L55.68 18.704C55.4987 17.968 55.1307 17.3707 54.576 16.912C54.0213 16.4533 53.2907 16.224 52.384 16.224C51.3707 16.224 50.4907 16.5867 49.744 17.312C49.008 18.0267 48.64 19.0347 48.64 20.336C48.64 21.6053 49.008 22.6027 49.744 23.328C50.48 24.0427 51.3653 24.4 52.4 24.4C53.2853 24.4 54.016 24.16 54.592 23.68C55.168 23.2 55.5627 22.608 55.776 21.904L57.536 22.48C57.2587 23.536 56.672 24.4267 55.776 25.152C54.8907 25.8773 53.7653 26.24 52.4 26.24ZM63.6975 18.16V20.048C63.4842 20.016 63.2815 20 63.0895 20C61.6922 20 60.9935 20.7627 60.9935 22.288V26H59.1375V18.208H60.9455V19.456C61.1268 19.04 61.4202 18.7147 61.8255 18.48C62.2308 18.2347 62.6895 18.112 63.2015 18.112C63.3722 18.112 63.5375 18.128 63.6975 18.16ZM66.4648 21.248H70.2888C70.2674 20.7573 70.0914 20.3467 69.7608 20.016C69.4408 19.6853 68.9768 19.52 68.3688 19.52C67.8141 19.52 67.3661 19.696 67.0248 20.048C66.6834 20.3893 66.4968 20.7893 66.4648 21.248ZM70.4968 23.28L72.0648 23.776C71.8408 24.4907 71.4194 25.0827 70.8008 25.552C70.1928 26.0107 69.4408 26.24 68.5448 26.24C67.4354 26.24 66.4914 25.8613 65.7128 25.104C64.9448 24.3467 64.5608 23.3333 64.5608 22.064C64.5608 20.8693 64.9341 19.888 65.6808 19.12C66.4381 18.352 67.3288 17.968 68.3528 17.968C69.5474 17.968 70.4808 18.336 71.1528 19.072C71.8248 19.7973 72.1608 20.7787 72.1608 22.016C72.1608 22.3467 72.1448 22.544 72.1128 22.608H66.4168C66.4381 23.1947 66.6514 23.68 67.0568 24.064C67.4728 24.448 67.9688 24.64 68.5448 24.64C69.5474 24.64 70.1981 24.1867 70.4968 23.28ZM75.1824 22.08C75.1824 22.8267 75.3744 23.4293 75.7584 23.888C76.1424 24.336 76.649 24.56 77.2784 24.56C77.8864 24.56 78.3824 24.3307 78.7664 23.872C79.1504 23.4133 79.3424 22.8107 79.3424 22.064C79.3424 21.328 79.1557 20.7413 78.7824 20.304C78.409 19.8667 77.913 19.648 77.2944 19.648C76.6757 19.648 76.169 19.872 75.7744 20.32C75.3797 20.7573 75.1824 21.344 75.1824 22.08ZM81.1344 14.416V24.576C81.1344 25.0987 81.161 25.5733 81.2144 26H79.4384C79.385 25.7013 79.3584 25.3653 79.3584 24.992C79.1664 25.344 78.8677 25.632 78.4624 25.856C78.057 26.08 77.593 26.192 77.0704 26.192C75.961 26.192 75.0597 25.8027 74.3664 25.024C73.673 24.2453 73.3264 23.264 73.3264 22.08C73.3264 20.9387 73.673 19.9733 74.3664 19.184C75.0704 18.3947 75.961 18 77.0384 18C77.657 18 78.153 18.112 78.5264 18.336C78.9104 18.56 79.177 18.8213 79.3264 19.12V14.416H81.1344ZM85.3994 26H83.5594V18.208H85.3994V26ZM83.6234 16.32C83.3887 16.0853 83.2714 15.8027 83.2714 15.472C83.2714 15.1413 83.3887 14.8587 83.6234 14.624C83.858 14.3787 84.1407 14.256 84.4714 14.256C84.8127 14.256 85.1007 14.3733 85.3354 14.608C85.57 14.8427 85.6874 15.1307 85.6874 15.472C85.6874 15.8027 85.57 16.0853 85.3354 16.32C85.1007 16.5547 84.8127 16.672 84.4714 16.672C84.1407 16.672 83.858 16.5547 83.6234 16.32ZM90.1458 15.824V18.208H91.7618V19.856H90.1458V23.472C90.1458 23.8133 90.2258 24.064 90.3858 24.224C90.5458 24.3733 90.7964 24.448 91.1378 24.448C91.3511 24.448 91.5644 24.4267 91.7778 24.384V25.92C91.5004 26.0373 91.1218 26.096 90.6418 26.096C89.9164 26.096 89.3458 25.8933 88.9298 25.488C88.5138 25.072 88.3058 24.5013 88.3058 23.776V19.856H86.8658V18.208H87.2658C87.6604 18.208 87.9591 18.096 88.1618 17.872C88.3644 17.648 88.4658 17.3547 88.4658 16.992V15.824H90.1458ZM98.8375 26.24C97.2482 26.24 95.8935 25.7013 94.7735 24.624C93.6642 23.5467 93.1095 22.1173 93.1095 20.336C93.1095 18.5653 93.6748 17.136 94.8055 16.048C95.9362 14.96 97.2748 14.416 98.8215 14.416C100.187 14.416 101.307 14.7627 102.182 15.456C103.067 16.1493 103.648 17.0293 103.926 18.096L102.118 18.704C101.936 17.968 101.568 17.3707 101.014 16.912C100.459 16.4533 99.7282 16.224 98.8215 16.224C97.8082 16.224 96.9282 16.5867 96.1815 17.312C95.4455 18.0267 95.0775 19.0347 95.0775 20.336C95.0775 21.6053 95.4455 22.6027 96.1815 23.328C96.9175 24.0427 97.8028 24.4 98.8375 24.4C99.7228 24.4 100.454 24.16 101.03 23.68C101.606 23.2 102 22.608 102.214 21.904L103.974 22.48C103.696 23.536 103.11 24.4267 102.214 25.152C101.328 25.8773 100.203 26.24 98.8375 26.24ZM105.017 23.888C105.017 23.2267 105.23 22.6987 105.657 22.304C106.094 21.8987 106.665 21.6427 107.369 21.536L109.369 21.232C109.753 21.1787 109.945 20.992 109.945 20.672C109.945 20.32 109.822 20.0373 109.577 19.824C109.332 19.6 108.964 19.488 108.473 19.488C108.004 19.488 107.63 19.6213 107.353 19.888C107.076 20.144 106.916 20.48 106.873 20.896L105.177 20.512C105.252 19.808 105.588 19.2107 106.185 18.72C106.782 18.2187 107.54 17.968 108.457 17.968C109.588 17.968 110.42 18.24 110.953 18.784C111.497 19.328 111.769 20.0267 111.769 20.88V24.752C111.769 25.264 111.801 25.68 111.865 26H110.137C110.084 25.84 110.057 25.5093 110.057 25.008C109.545 25.8293 108.745 26.24 107.657 26.24C106.868 26.24 106.228 26.0107 105.737 25.552C105.257 25.0827 105.017 24.528 105.017 23.888ZM108.009 24.784C108.585 24.784 109.049 24.6293 109.401 24.32C109.764 24 109.945 23.4827 109.945 22.768V22.416L107.913 22.72C107.22 22.8373 106.873 23.1893 106.873 23.776C106.873 24.0533 106.974 24.2933 107.177 24.496C107.38 24.688 107.657 24.784 108.009 24.784ZM115.853 29.04H114.013V18.208H115.805V19.264C116.007 18.912 116.327 18.6187 116.765 18.384C117.202 18.1493 117.709 18.032 118.285 18.032C119.405 18.032 120.285 18.416 120.925 19.184C121.565 19.9413 121.885 20.912 121.885 22.096C121.885 23.28 121.549 24.2613 120.877 25.04C120.205 25.808 119.319 26.192 118.221 26.192C117.687 26.192 117.213 26.0907 116.797 25.888C116.381 25.6853 116.066 25.4293 115.853 25.12V29.04ZM120.029 22.096C120.029 21.3707 119.837 20.7893 119.453 20.352C119.069 19.904 118.562 19.68 117.933 19.68C117.314 19.68 116.807 19.904 116.413 20.352C116.029 20.7893 115.837 21.3707 115.837 22.096C115.837 22.832 116.029 23.424 116.413 23.872C116.807 24.32 117.314 24.544 117.933 24.544C118.551 24.544 119.053 24.32 119.437 23.872C119.831 23.424 120.029 22.832 120.029 22.096ZM125.509 26H123.669V18.208H125.509V26ZM123.733 16.32C123.498 16.0853 123.381 15.8027 123.381 15.472C123.381 15.1413 123.498 14.8587 123.733 14.624C123.967 14.3787 124.25 14.256 124.581 14.256C124.922 14.256 125.21 14.3733 125.445 14.608C125.679 14.8427 125.797 15.1307 125.797 15.472C125.797 15.8027 125.679 16.0853 125.445 16.32C125.21 16.5547 124.922 16.672 124.581 16.672C124.25 16.672 123.967 16.5547 123.733 16.32ZM130.255 15.824V18.208H131.871V19.856H130.255V23.472C130.255 23.8133 130.335 24.064 130.495 24.224C130.655 24.3733 130.906 24.448 131.247 24.448C131.46 24.448 131.674 24.4267 131.887 24.384V25.92C131.61 26.0373 131.231 26.096 130.751 26.096C130.026 26.096 129.455 25.8933 129.039 25.488C128.623 25.072 128.415 24.5013 128.415 23.776V19.856H126.975V18.208H127.375C127.77 18.208 128.068 18.096 128.271 17.872C128.474 17.648 128.575 17.3547 128.575 16.992V15.824H130.255ZM133.314 23.888C133.314 23.2267 133.527 22.6987 133.954 22.304C134.391 21.8987 134.962 21.6427 135.666 21.536L137.666 21.232C138.05 21.1787 138.242 20.992 138.242 20.672C138.242 20.32 138.119 20.0373 137.874 19.824C137.628 19.6 137.26 19.488 136.77 19.488C136.3 19.488 135.927 19.6213 135.65 19.888C135.372 20.144 135.212 20.48 135.17 20.896L133.474 20.512C133.548 19.808 133.884 19.2107 134.482 18.72C135.079 18.2187 135.836 17.968 136.754 17.968C137.884 17.968 138.716 18.24 139.25 18.784C139.794 19.328 140.066 20.0267 140.066 20.88V24.752C140.066 25.264 140.098 25.68 140.162 26H138.434C138.38 25.84 138.354 25.5093 138.354 25.008C137.842 25.8293 137.042 26.24 135.954 26.24C135.164 26.24 134.524 26.0107 134.034 25.552C133.554 25.0827 133.314 24.528 133.314 23.888ZM136.306 24.784C136.882 24.784 137.346 24.6293 137.698 24.32C138.06 24 138.242 23.4827 138.242 22.768V22.416L136.21 22.72C135.516 22.8373 135.17 23.1893 135.17 23.776C135.17 24.0533 135.271 24.2933 135.474 24.496C135.676 24.688 135.954 24.784 136.306 24.784ZM144.165 26H142.309V14.416H144.165V26Z" fill="white"/>
</svg>
