<svg width="150" height="40" viewBox="0 0 150 40" fill="none" xmlns="http://www.w3.org/2000/svg">
<path d="M39.3994 15.1356C38.2289 10.4676 35.4145 6.37823 31.4725 3.61766C27.5305 0.85709 22.7253 -0.389523 17.9385 0.106533C13.1516 0.602585 8.70413 2.80804 5.41198 6.31828C2.11982 9.82851 0.203763 14.4081 0.015336 19.2169C-0.173091 24.0257 1.37875 28.7412 4.38615 32.4983C7.39354 36.2554 11.6548 38.8021 16.3882 39.6712C21.1215 40.5403 26.0096 39.6735 30.1555 37.2298C34.3014 34.7861 37.4272 30.9295 38.9593 26.3674L35.4155 25.1772C34.1697 28.8866 31.6282 32.0223 28.2572 34.0092C24.8863 35.9961 20.9119 36.7009 17.0633 35.9942C13.2147 35.2876 9.74994 33.2169 7.30468 30.1621C4.85943 27.1073 3.59766 23.2732 3.75086 19.3633C3.90407 15.4534 5.46198 11.7298 8.13877 8.87566C10.8156 6.02156 14.4317 4.22835 18.3238 3.82502C22.2159 3.42168 26.1229 4.43528 29.3281 6.67984C32.5332 8.92441 34.8216 12.2494 35.7733 16.0449L39.3994 15.1356Z" fill="#F2F7FE"/>
<path d="M6.76577 23.3185C7.56429 26.503 9.48429 29.2928 12.1735 31.1761C14.8628 33.0594 18.1409 33.9098 21.4065 33.5714C24.6721 33.233 27.7062 31.7284 29.9521 29.3337C32.198 26.939 33.5052 23.8148 33.6337 20.5342C33.7623 17.2537 32.7036 14.0367 30.652 11.4736C28.6003 8.91055 25.6932 7.17319 22.4641 6.58029C19.235 5.98739 15.9004 6.57872 13.072 8.24579C10.2437 9.91287 8.11126 12.5439 7.06601 15.6561L10.2886 16.7384C11.0734 14.4016 12.6745 12.4261 14.7982 11.1744C16.9219 9.92272 19.4256 9.47872 21.8502 9.92389C24.2748 10.3691 26.4575 11.6736 27.998 13.598C29.5385 15.5225 30.3334 17.9379 30.2368 20.4011C30.1403 22.8643 29.1589 25.2102 27.4725 27.0082C25.7862 28.8062 23.5081 29.9359 21.0561 30.19C18.6041 30.4441 16.1428 29.8056 14.1236 28.3915C12.1044 26.9775 10.6627 24.8828 10.0632 22.4917L6.76577 23.3185Z" fill="#F2F7FE"/>
<path opacity="0.8" d="M52.4 26.24C50.8107 26.24 49.456 25.7013 48.336 24.624C47.2267 23.5467 46.672 22.1173 46.672 20.336C46.672 18.5653 47.2373 17.136 48.368 16.048C49.4987 14.96 50.8373 14.416 52.384 14.416C53.7493 14.416 54.8693 14.7627 55.744 15.456C56.6293 16.1493 57.2107 17.0293 57.488 18.096L55.68 18.704C55.4987 17.968 55.1307 17.3707 54.576 16.912C54.0213 16.4533 53.2907 16.224 52.384 16.224C51.3707 16.224 50.4907 16.5867 49.744 17.312C49.008 18.0267 48.64 19.0347 48.64 20.336C48.64 21.6053 49.008 22.6027 49.744 23.328C50.48 24.0427 51.3653 24.4 52.4 24.4C53.2853 24.4 54.016 24.16 54.592 23.68C55.168 23.2 55.5627 22.608 55.776 21.904L57.536 22.48C57.2587 23.536 56.672 24.4267 55.776 25.152C54.8907 25.8773 53.7653 26.24 52.4 26.24ZM63.6975 18.16V20.048C63.4842 20.016 63.2815 20 63.0895 20C61.6922 20 60.9935 20.7627 60.9935 22.288V26H59.1375V18.208H60.9455V19.456C61.1268 19.04 61.4202 18.7147 61.8255 18.48C62.2308 18.2347 62.6895 18.112 63.2015 18.112C63.3722 18.112 63.5375 18.128 63.6975 18.16ZM66.4648 21.248H70.2888C70.2674 20.7573 70.0914 20.3467 69.7608 20.016C69.4408 19.6853 68.9768 19.52 68.3688 19.52C67.8141 19.52 67.3661 19.696 67.0248 20.048C66.6834 20.3893 66.4968 20.7893 66.4648 21.248ZM70.4968 23.28L72.0648 23.776C71.8408 24.4907 71.4194 25.0827 70.8008 25.552C70.1928 26.0107 69.4408 26.24 68.5448 26.24C67.4354 26.24 66.4914 25.8613 65.7128 25.104C64.9448 24.3467 64.5608 23.3333 64.5608 22.064C64.5608 20.8693 64.9341 19.888 65.6808 19.12C66.4381 18.352 67.3288 17.968 68.3528 17.968C69.5474 17.968 70.4808 18.336 71.1528 19.072C71.8248 19.7973 72.1608 20.7787 72.1608 22.016C72.1608 22.3467 72.1448 22.544 72.1128 22.608H66.4168C66.4381 23.1947 66.6514 23.68 67.0568 24.064C67.4728 24.448 67.9688 24.64 68.5448 24.64C69.5474 24.64 70.1981 24.1867 70.4968 23.28ZM75.1824 22.08C75.1824 22.8267 75.3744 23.4293 75.7584 23.888C76.1424 24.336 76.649 24.56 77.2784 24.56C77.8864 24.56 78.3824 24.3307 78.7664 23.872C79.1504 23.4133 79.3424 22.8107 79.3424 22.064C79.3424 21.328 79.1557 20.7413 78.7824 20.304C78.409 19.8667 77.913 19.648 77.2944 19.648C76.6757 19.648 76.169 19.872 75.7744 20.32C75.3797 20.7573 75.1824 21.344 75.1824 22.08ZM81.1344 14.416V24.576C81.1344 25.0987 81.161 25.5733 81.2144 26H79.4384C79.385 25.7013 79.3584 25.3653 79.3584 24.992C79.1664 25.344 78.8677 25.632 78.4624 25.856C78.057 26.08 77.593 26.192 77.0704 26.192C75.961 26.192 75.0597 25.8027 74.3664 25.024C73.673 24.2453 73.3264 23.264 73.3264 22.08C73.3264 20.9387 73.673 19.9733 74.3664 19.184C75.0704 18.3947 75.961 18 77.0384 18C77.657 18 78.153 18.112 78.5264 18.336C78.9104 18.56 79.177 18.8213 79.3264 19.12V14.416H81.1344ZM85.3994 26H83.5594V18.208H85.3994V26ZM83.6234 16.32C83.3887 16.0853 83.2714 15.8027 83.2714 15.472C83.2714 15.1413 83.3887 14.8587 83.6234 14.624C83.858 14.3787 84.1407 14.256 84.4714 14.256C84.8127 14.256 85.1007 14.3733 85.3354 14.608C85.57 14.8427 85.6874 15.1307 85.6874 15.472C85.6874 15.8027 85.57 16.0853 85.3354 16.32C85.1007 16.5547 84.8127 16.672 84.4714 16.672C84.1407 16.672 83.858 16.5547 83.6234 16.32ZM90.1458 15.824V18.208H91.7618V19.856H90.1458V23.472C90.1458 23.8133 90.2258 24.064 90.3858 24.224C90.5458 24.3733 90.7964 24.448 91.1378 24.448C91.3511 24.448 91.5644 24.4267 91.7778 24.384V25.92C91.5004 26.0373 91.1218 26.096 90.6418 26.096C89.9164 26.096 89.3458 25.8933 88.9298 25.488C88.5138 25.072 88.3058 24.5013 88.3058 23.776V19.856H86.8658V18.208H87.2658C87.6604 18.208 87.9591 18.096 88.1618 17.872C88.3644 17.648 88.4658 17.3547 88.4658 16.992V15.824H90.1458ZM102.806 26.24C101.217 26.24 99.8623 25.7013 98.7423 24.624C97.6329 23.5467 97.0783 22.1173 97.0783 20.336C97.0783 18.5653 97.6436 17.136 98.7743 16.048C99.9049 14.96 101.244 14.416 102.79 14.416C104.156 14.416 105.276 14.7627 106.15 15.456C107.036 16.1493 107.617 17.0293 107.894 18.096L106.086 18.704C105.905 17.968 105.537 17.3707 104.982 16.912C104.428 16.4533 103.697 16.224 102.79 16.224C101.777 16.224 100.897 16.5867 100.15 17.312C99.4143 18.0267 99.0463 19.0347 99.0463 20.336C99.0463 21.6053 99.4143 22.6027 100.15 23.328C100.886 24.0427 101.772 24.4 102.806 24.4C103.692 24.4 104.422 24.16 104.998 23.68C105.574 23.2 105.969 22.608 106.182 21.904L107.942 22.48C107.665 23.536 107.078 24.4267 106.182 25.152C105.297 25.8773 104.172 26.24 102.806 26.24ZM108.986 23.888C108.986 23.2267 109.199 22.6987 109.626 22.304C110.063 21.8987 110.634 21.6427 111.338 21.536L113.338 21.232C113.722 21.1787 113.914 20.992 113.914 20.672C113.914 20.32 113.791 20.0373 113.546 19.824C113.3 19.6 112.932 19.488 112.442 19.488C111.972 19.488 111.599 19.6213 111.322 19.888C111.044 20.144 110.884 20.48 110.842 20.896L109.146 20.512C109.22 19.808 109.556 19.2107 110.154 18.72C110.751 18.2187 111.508 17.968 112.426 17.968C113.556 17.968 114.388 18.24 114.922 18.784C115.466 19.328 115.738 20.0267 115.738 20.88V24.752C115.738 25.264 115.77 25.68 115.834 26H114.106C114.052 25.84 114.026 25.5093 114.026 25.008C113.514 25.8293 112.714 26.24 111.626 26.24C110.836 26.24 110.196 26.0107 109.706 25.552C109.226 25.0827 108.986 24.528 108.986 23.888ZM111.978 24.784C112.554 24.784 113.018 24.6293 113.37 24.32C113.732 24 113.914 23.4827 113.914 22.768V22.416L111.882 22.72C111.188 22.8373 110.842 23.1893 110.842 23.776C110.842 24.0533 110.943 24.2933 111.146 24.496C111.348 24.688 111.626 24.784 111.978 24.784ZM119.821 29.04H117.981V18.208H119.773V19.264C119.976 18.912 120.296 18.6187 120.733 18.384C121.171 18.1493 121.677 18.032 122.253 18.032C123.373 18.032 124.253 18.416 124.893 19.184C125.533 19.9413 125.853 20.912 125.853 22.096C125.853 23.28 125.517 24.2613 124.845 25.04C124.173 25.808 123.288 26.192 122.189 26.192C121.656 26.192 121.181 26.0907 120.765 25.888C120.349 25.6853 120.035 25.4293 119.821 25.12V29.04ZM123.997 22.096C123.997 21.3707 123.805 20.7893 123.421 20.352C123.037 19.904 122.531 19.68 121.901 19.68C121.283 19.68 120.776 19.904 120.381 20.352C119.997 20.7893 119.805 21.3707 119.805 22.096C119.805 22.832 119.997 23.424 120.381 23.872C120.776 24.32 121.283 24.544 121.901 24.544C122.52 24.544 123.021 24.32 123.405 23.872C123.8 23.424 123.997 22.832 123.997 22.096ZM129.478 26H127.638V18.208H129.478V26ZM127.702 16.32C127.467 16.0853 127.35 15.8027 127.35 15.472C127.35 15.1413 127.467 14.8587 127.702 14.624C127.936 14.3787 128.219 14.256 128.549 14.256C128.891 14.256 129.179 14.3733 129.414 14.608C129.648 14.8427 129.766 15.1307 129.766 15.472C129.766 15.8027 129.648 16.0853 129.414 16.32C129.179 16.5547 128.891 16.672 128.549 16.672C128.219 16.672 127.936 16.5547 127.702 16.32ZM134.224 15.824V18.208H135.84V19.856H134.224V23.472C134.224 23.8133 134.304 24.064 134.464 24.224C134.624 24.3733 134.875 24.448 135.216 24.448C135.429 24.448 135.643 24.4267 135.856 24.384V25.92C135.579 26.0373 135.2 26.096 134.72 26.096C133.995 26.096 133.424 25.8933 133.008 25.488C132.592 25.072 132.384 24.5013 132.384 23.776V19.856H130.944V18.208H131.344C131.739 18.208 132.037 18.096 132.24 17.872C132.443 17.648 132.544 17.3547 132.544 16.992V15.824H134.224ZM137.283 23.888C137.283 23.2267 137.496 22.6987 137.923 22.304C138.36 21.8987 138.931 21.6427 139.635 21.536L141.635 21.232C142.019 21.1787 142.211 20.992 142.211 20.672C142.211 20.32 142.088 20.0373 141.843 19.824C141.597 19.6 141.229 19.488 140.739 19.488C140.269 19.488 139.896 19.6213 139.619 19.888C139.341 20.144 139.181 20.48 139.139 20.896L137.443 20.512C137.517 19.808 137.853 19.2107 138.451 18.72C139.048 18.2187 139.805 17.968 140.723 17.968C141.853 17.968 142.685 18.24 143.219 18.784C143.763 19.328 144.035 20.0267 144.035 20.88V24.752C144.035 25.264 144.067 25.68 144.131 26H142.403C142.349 25.84 142.323 25.5093 142.323 25.008C141.811 25.8293 141.011 26.24 139.923 26.24C139.133 26.24 138.493 26.0107 138.003 25.552C137.523 25.0827 137.283 24.528 137.283 23.888ZM140.275 24.784C140.851 24.784 141.315 24.6293 141.667 24.32C142.029 24 142.211 23.4827 142.211 22.768V22.416L140.179 22.72C139.485 22.8373 139.139 23.1893 139.139 23.776C139.139 24.0533 139.24 24.2933 139.443 24.496C139.645 24.688 139.923 24.784 140.275 24.784ZM148.134 26H146.278V14.416H148.134V26Z" fill="white"/>
</svg>
