<svg width="203" height="210" viewBox="0 0 203 210" fill="none" xmlns="http://www.w3.org/2000/svg">
<path d="M191.545 145L179.396 186L155.545 179.489L191.545 145Z" fill="#E4761B" stroke="#E4761B"/>
<path d="M155.545 179L178.549 147.988L191.545 145L155.545 179Z" fill="#E4761B" stroke="#E4761B"/>
<path d="M173.545 113.971L191.545 144.96L178.459 148L173.545 113.971ZM173.545 113.971L185.127 106L191.545 144.96L173.545 113.971Z" fill="#F6851B" stroke="#F6851B"/>
<path d="M158.545 91.0971L192.545 76.9995L190.855 84.7221L158.545 91.0971ZM189.78 93.9995L158.545 91.0971L190.855 84.7221L189.78 93.9995Z" fill="#763D16" stroke="#763D16"/>
<path d="M188.922 93.3432L184.689 106L158.545 90.5528L188.922 93.3432ZM195.545 80.1387L189.968 84.4239L191.611 76.9995L195.545 80.1387ZM188.922 93.3432L189.968 84.4239L194.4 88.1112L188.922 93.3432Z" fill="#763D16" stroke="#763D16"/>
<path d="M130.545 170L138.603 172.373L155.545 179L130.545 170Z" fill="#E2761B" stroke="#E2761B"/>
<path d="M185.524 106L189.839 93.7092L193.545 96.4189L185.524 106ZM185.524 106L150.545 95.0156L158.871 90.9995L185.524 106Z" fill="#763D16" stroke="#763D16"/>
<path d="M167.545 51.9995L159.045 90.8591L150.545 94.9995L167.545 51.9995Z" fill="#763D16" stroke="#763D16"/>
<path d="M192.545 77.3821L158.545 90.9995L166.943 51.9995L192.545 77.3821Z" fill="#763D16" stroke="#763D16"/>
<path d="M167.545 51.9518L201.545 47.9995L192.076 76.9995L167.545 51.9518Z" fill="#763D16" stroke="#763D16"/>
<path d="M185.545 106.144L173.811 114L150.545 94.9995L185.545 106.144Z" fill="#F6851B" stroke="#F6851B"/>
<path d="M200.073 19.9995L201.545 48.0058L167.545 51.9995L200.073 19.9995Z" fill="#763D16" stroke="#763D16"/>
<path d="M200.545 19.9995L131.443 69.9995L130.545 36.0869L200.545 19.9995Z" fill="#E2761B" stroke="#E2761B"/>
<path d="M79.5449 31.9995L130.652 36.0727L131.545 69.9995L79.5449 31.9995Z" fill="#F6851B" stroke="#F6851B"/>
<path d="M151.19 94.9995L131.545 70.257L167.545 51.9995L151.19 94.9995Z" fill="#763D16" stroke="#763D16"/>
<path d="M150.752 94.9995L173.545 114.434L141.545 118L150.752 94.9995Z" fill="#E4761B" stroke="#E4761B"/>
<path d="M141.624 118L131.545 69.9995L150.545 94.9555L141.624 118Z" fill="#E4761B" stroke="#E4761B"/>
<path d="M167.515 51.8267L131.545 69.9995L200.545 19.9995L167.515 51.8267Z" fill="#763D16" stroke="#763D16"/>
<path d="M79.6438 179.16L96.5449 196L73.5449 176L79.6438 179.16Z" fill="#C0AD9E" stroke="#C0AD9E"/>
<path d="M155.545 179L163.261 150.154L178.545 148L155.545 179Z" fill="#CD6116" stroke="#CD6116"/>
<path d="M13.5449 96.9995L42.5449 67.9995L17.2852 93.539L13.5449 96.9995Z" fill="#E2761B" stroke="#E2761B"/>
<path d="M178.545 147.813L163.333 150L173.689 113.879L178.545 147.813ZM131.473 70.0079L104.171 69.1136L79.5449 31.9995L131.473 70.0079Z" fill="#F6851B" stroke="#F6851B"/>
<path d="M173.545 114L163.372 150L162.545 132.42L173.545 114Z" fill="#E4751F" stroke="#E4751F"/>
<path d="M141.545 117.626L173.545 114L162.298 133L141.545 117.626Z" fill="#CD6116" stroke="#CD6116"/>
<path d="M104.545 68.9995L131.37 69.9069L141.545 118L104.545 68.9995Z" fill="#F6851B" stroke="#F6851B"/>
<path d="M104.545 69.3722L30.4854 0.999512L79.792 32.2542L104.545 69.3722ZM79.7422 189.124L15.3945 209L2.54492 160.055L79.7422 189.124Z" fill="#E4761B" stroke="#E4761B"/>
<path d="M23.5449 109L48.0265 90.9995L68.5449 95.4643L23.5449 109Z" fill="#763D16" stroke="#763D16"/>
<path d="M68.5449 94.9995L47.5449 90.3399L58.7894 45.9995L68.5449 94.9995Z" fill="#763D16" stroke="#763D16"/>
<path d="M17.5449 94.1013L47.5449 90.9995L23.4263 109L17.5449 94.1013Z" fill="#763D16" stroke="#763D16"/>
<path d="M162.545 133L149.854 126.671L141.545 118L162.545 133Z" fill="#CD6116" stroke="#CD6116"/>
<path d="M17.6618 93.9995L15.5449 82.9995L47.5449 90.8013L17.6618 93.9995Z" fill="#763D16" stroke="#763D16"/>
<path d="M147.545 141L150.111 127L162.545 133.216L147.545 141Z" fill="#233447" stroke="#233447"/>
<path d="M163.545 150L147.545 140.614L162.698 133L163.545 150Z" fill="#F6851B" stroke="#F6851B"/>
<path d="M47.7523 90.3399L15.1992 82.443L12.5449 73.0746L47.7523 90.3399ZM58.7202 45.9995L47.7523 90.3399L12.5449 73.0746L58.7202 45.9995ZM58.7202 45.9995L104.545 69.5921L68.2357 94.9995L58.7202 45.9995Z" fill="#763D16" stroke="#763D16"/>
<path d="M68.5449 94.7158L104.518 68.9995L120.545 118L68.5449 94.7158ZM120.545 118L70.8274 116.957L68.5449 94.7158L120.545 118Z" fill="#E4761B" stroke="#E4761B"/>
<path d="M23.5449 109.014L67.9807 94.7158L70.2594 116.957L23.5449 109.014ZM141.545 117.255L119.897 118L103.896 68.9995L141.545 117.255Z" fill="#F6851B" stroke="#F6851B"/>
<path d="M149.545 126.7L147.024 141L141.545 118L149.545 126.7Z" fill="#CD6116" stroke="#CD6116"/>
<path d="M30.5449 0.999512L104.545 68.9995L59.0103 45.2292L30.5449 0.999512Z" fill="#763D16" stroke="#763D16"/>
<path d="M2.54492 160.53L64.8404 158L79.5449 189L2.54492 160.53Z" fill="#E4761B" stroke="#E4761B"/>
<path d="M79.441 189L64.5449 157.484L95.5449 156L79.441 189Z" fill="#CD6116" stroke="#CD6116"/>
<path d="M147.783 140.325L163.744 150.133L172.545 171L147.783 140.325ZM70.6145 117.006L2.54492 159.991L23.7266 109L70.6145 117.006ZM64.8965 157.389L2.54492 159.991L70.6145 117.006L64.8965 157.389ZM142.165 117.306L146.242 132.218L126.552 133.369L142.165 117.306ZM126.552 133.369L120.436 118.057L142.165 117.306L126.552 133.369Z" fill="#F6851B" stroke="#F6851B"/>
<path d="M96.2224 195.7L79.5449 189L137.545 199L96.2224 195.7Z" fill="#C0AD9E" stroke="#C0AD9E"/>
<path d="M23.5449 109L13.5449 97.3591L17.347 93.9995L23.5449 109Z" fill="#763D16" stroke="#763D16"/>
<path d="M144.545 191.588L137.92 199L79.5449 189L144.545 191.588Z" fill="#D7C1B3" stroke="#D7C1B3"/>
<path d="M147.545 173.811L79.5449 189L95.4514 156L147.545 173.811Z" fill="#E4761B" stroke="#E4761B"/>
<path d="M79.5449 189.435L147.545 174L144.413 192L79.5449 189.435Z" fill="#D7C1B3" stroke="#D7C1B3"/>
<path d="M12.7786 73.2228L10.5449 34.9995L58.5449 45.7855L12.7786 73.2228ZM17.5439 93.9995L10.942 87.2893L15.4095 82.7164L17.5439 93.9995Z" fill="#763D16" stroke="#763D16"/>
<path d="M108.545 128.227L120.545 118L118.831 143L108.545 128.227Z" fill="#CD6116" stroke="#CD6116"/>
<path d="M120.545 118L109.141 128.25L92.5449 137L120.545 118Z" fill="#CD6116" stroke="#CD6116"/>
<path d="M172.545 171L169.483 168.797L147.545 141L172.545 171Z" fill="#F6851B" stroke="#F6851B"/>
<path d="M93.0998 137L70.5449 118L120.545 119.028L93.0998 137Z" fill="#CD6116" stroke="#CD6116"/>
<path d="M118.545 143L120.197 118L126.545 133.805L118.545 143Z" fill="#E4751F" stroke="#E4751F"/>
<path d="M8.54492 76.9786L12.7763 72.9995L15.5449 82.9995L8.54492 76.9786Z" fill="#763D16" stroke="#763D16"/>
<path d="M118.545 143L92.5449 136.863L108.908 128L118.545 143Z" fill="#233447" stroke="#233447"/>
<path d="M58.5449 45.9995L10.5449 35.0889L30.152 0.999512L58.5449 45.9995Z" fill="#763D16" stroke="#763D16"/>
<path d="M137.826 199.023L140.545 206L96.5449 196L137.826 199.023Z" fill="#C0AD9E" stroke="#C0AD9E"/>
<path d="M95.0044 156L92.5449 137L118.545 142.714L95.0044 156Z" fill="#F6851B" stroke="#F6851B"/>
<path d="M70.5449 118L93.0998 136.975L95.5449 156L70.5449 118Z" fill="#E4751F" stroke="#E4751F"/>
<path d="M126.427 134.128L146.189 132.994L169.545 169L126.427 134.128ZM70.284 118L95.2864 156.323L64.5449 157.803L70.284 118Z" fill="#F6851B" stroke="#F6851B"/>
<path d="M126.211 134L150.545 171L118.545 142.793L126.211 134Z" fill="#E4751F" stroke="#E4751F"/>
<path d="M118.545 143L150.545 171.007L147.182 174L118.545 143Z" fill="#F6851B" stroke="#F6851B"/>
<path d="M147.663 174L95.5449 156.222L118.869 142.79L147.663 174ZM169.545 168.913L151.045 170.987L126.577 134L169.545 168.913Z" fill="#F6851B" stroke="#F6851B"/>
<path d="M174.545 186L166.48 201.851L140.317 206L174.545 186ZM140.317 206L137.545 198.592L144.249 191.382L140.317 206Z" fill="#C0AD9E" stroke="#C0AD9E"/>
<path d="M144.451 191.382L149.358 189.456L140.545 206L144.451 191.382ZM140.545 206L149.358 189.456L174.545 186L140.545 206Z" fill="#C0AD9E" stroke="#C0AD9E"/>
<path d="M169.296 169L175.545 172.75L156.545 175L169.296 169Z" fill="#161616" stroke="#161616"/>
<path d="M156.447 174.795L150.545 171.028L168.691 169L156.447 174.795ZM154.35 177.644L176.545 174.988L173.472 186L154.35 177.644Z" fill="#161616" stroke="#161616"/>
<path d="M173.509 186.536L149.268 190.045L154.617 177.866L173.509 186.536ZM149.268 190.045L144.545 192L147.581 174.057L149.268 190.045ZM147.581 174.057L150.858 171L156.69 174.909L147.581 174.057ZM174.714 172.653L176.545 175.109L154.617 177.866L174.714 172.653Z" fill="#161616" stroke="#161616"/>
<path d="M154.806 177.394L156.945 174.334L175.545 172L154.806 177.394ZM147.545 173.452L154.806 177.394L149.286 190L147.545 173.452Z" fill="#161616" stroke="#161616"/>
<path d="M156.545 174.894L154.497 178L147.545 174L156.545 174.894Z" fill="#161616" stroke="#161616"/>
</svg>
