<svg width="44" height="44" viewBox="0 0 44 44" fill="none" xmlns="http://www.w3.org/2000/svg">
<circle opacity="0.05" cx="22" cy="22" r="22" fill="white"/>
<path d="M22 12C19.0922 12 16.7266 14.3657 16.7266 17.2734C16.7266 20.1812 19.0922 22.5469 22 22.5469C24.9078 22.5469 27.2734 20.1812 27.2734 17.2734C27.2734 14.3657 24.9078 12 22 12ZM22 21.375C19.7384 21.375 17.8984 19.535 17.8984 17.2734C17.8984 15.0118 19.7384 13.1719 22 13.1719C24.2616 13.1719 26.1016 15.0118 26.1016 17.2734C26.1016 19.535 24.2616 21.375 22 21.375Z" fill="#F2F7FE"/>
<path d="M28.5612 25.992C27.1174 24.5261 25.2035 23.7188 23.1719 23.7188H20.8281C18.7966 23.7188 16.8826 24.5261 15.4388 25.992C14.0021 27.4507 13.2109 29.3763 13.2109 31.4141C13.2109 31.7377 13.4733 32 13.7969 32H30.2031C30.5267 32 30.7891 31.7377 30.7891 31.4141C30.7891 29.3763 29.9979 27.4507 28.5612 25.992ZM14.4086 30.8281C14.7021 27.5045 17.4692 24.8906 20.8281 24.8906H23.1719C26.5308 24.8906 29.2979 27.5045 29.5914 30.8281H14.4086Z" fill="#F2F7FE"/>
</svg>
