<svg width="17" height="17" viewBox="0 0 17 17" fill="none" xmlns="http://www.w3.org/2000/svg">
<g clip-path="url(#clip0)">
<path d="M12.4231 6.04811H17V3.92311C17 2.57111 15.9001 1.47119 14.5481 1.47119H2.45192C1.09992 1.47119 0 2.57111 0 3.92311V13.0769C0 14.4289 1.09992 15.5289 2.45192 15.5289H14.5481C15.9001 15.5289 17 14.4289 17 13.0769V10.9519H12.4231C11.0711 10.9519 9.97116 9.85203 9.97116 8.50003C9.97116 7.14803 11.0711 6.04811 12.4231 6.04811Z" fill="#F3F5F9"/>
<path d="M12.4231 7.02881C11.6119 7.02881 10.952 7.68875 10.952 8.49997C10.952 9.31119 11.6119 9.97113 12.4231 9.97113H17V7.02884H12.4231V7.02881ZM13.077 8.99035H12.4231C12.1523 8.99035 11.9328 8.77077 11.9328 8.49997C11.9328 8.22917 12.1523 8.00959 12.4231 8.00959H13.077C13.3478 8.00959 13.5673 8.22917 13.5673 8.49997C13.5673 8.77077 13.3478 8.99035 13.077 8.99035Z" fill="#F3F5F9"/>
</g>
<defs>
<clipPath id="clip0">
<rect width="17" height="17" fill="white"/>
</clipPath>
</defs>
</svg>
