<svg width="150" height="40" viewBox="0 0 150 40" fill="none" xmlns="http://www.w3.org/2000/svg">
<path opacity="0.8" d="M52.4 26.2185C50.8107 26.2185 49.456 25.6798 48.336 24.6025C47.2267 23.5252 46.672 22.0958 46.672 20.3145C46.672 18.5438 47.2373 17.1145 48.368 16.0265C49.4987 14.9385 50.8373 14.3945 52.384 14.3945C53.7493 14.3945 54.8693 14.7412 55.744 15.4345C56.6293 16.1278 57.2107 17.0078 57.488 18.0745L55.68 18.6825C55.4987 17.9465 55.1307 17.3492 54.576 16.8905C54.0213 16.4318 53.2907 16.2025 52.384 16.2025C51.3707 16.2025 50.4907 16.5652 49.744 17.2905C49.008 18.0052 48.64 19.0132 48.64 20.3145C48.64 21.5838 49.008 22.5812 49.744 23.3065C50.48 24.0212 51.3653 24.3785 52.4 24.3785C53.2853 24.3785 54.016 24.1385 54.592 23.6585C55.168 23.1785 55.5627 22.5865 55.776 21.8825L57.536 22.4585C57.2587 23.5145 56.672 24.4052 55.776 25.1305C54.8907 25.8558 53.7653 26.2185 52.4 26.2185ZM63.6975 18.1385V20.0265C63.4842 19.9945 63.2815 19.9785 63.0895 19.9785C61.6922 19.9785 60.9935 20.7412 60.9935 22.2665V25.9785H59.1375V18.1865H60.9455V19.4345C61.1268 19.0185 61.4202 18.6932 61.8255 18.4585C62.2308 18.2132 62.6895 18.0905 63.2015 18.0905C63.3722 18.0905 63.5375 18.1065 63.6975 18.1385ZM66.4648 21.2265H70.2888C70.2674 20.7358 70.0914 20.3252 69.7608 19.9945C69.4408 19.6638 68.9768 19.4985 68.3688 19.4985C67.8141 19.4985 67.3661 19.6745 67.0248 20.0265C66.6834 20.3678 66.4968 20.7678 66.4648 21.2265ZM70.4968 23.2585L72.0648 23.7545C71.8408 24.4692 71.4194 25.0612 70.8008 25.5305C70.1928 25.9892 69.4408 26.2185 68.5448 26.2185C67.4354 26.2185 66.4914 25.8398 65.7128 25.0825C64.9448 24.3252 64.5608 23.3118 64.5608 22.0425C64.5608 20.8478 64.9341 19.8665 65.6808 19.0985C66.4381 18.3305 67.3288 17.9465 68.3528 17.9465C69.5474 17.9465 70.4808 18.3145 71.1528 19.0505C71.8248 19.7758 72.1608 20.7572 72.1608 21.9945C72.1608 22.3252 72.1448 22.5225 72.1128 22.5865H66.4168C66.4381 23.1732 66.6514 23.6585 67.0568 24.0425C67.4728 24.4265 67.9688 24.6185 68.5448 24.6185C69.5474 24.6185 70.1981 24.1652 70.4968 23.2585ZM75.1824 22.0585C75.1824 22.8052 75.3744 23.4078 75.7584 23.8665C76.1424 24.3145 76.649 24.5385 77.2784 24.5385C77.8864 24.5385 78.3824 24.3092 78.7664 23.8505C79.1504 23.3918 79.3424 22.7892 79.3424 22.0425C79.3424 21.3065 79.1557 20.7198 78.7824 20.2825C78.409 19.8452 77.913 19.6265 77.2944 19.6265C76.6757 19.6265 76.169 19.8505 75.7744 20.2985C75.3797 20.7358 75.1824 21.3225 75.1824 22.0585ZM81.1344 14.3945V24.5545C81.1344 25.0772 81.161 25.5518 81.2144 25.9785H79.4384C79.385 25.6798 79.3584 25.3438 79.3584 24.9705C79.1664 25.3225 78.8677 25.6105 78.4624 25.8345C78.057 26.0585 77.593 26.1705 77.0704 26.1705C75.961 26.1705 75.0597 25.7812 74.3664 25.0025C73.673 24.2238 73.3264 23.2425 73.3264 22.0585C73.3264 20.9172 73.673 19.9518 74.3664 19.1625C75.0704 18.3732 75.961 17.9785 77.0384 17.9785C77.657 17.9785 78.153 18.0905 78.5264 18.3145C78.9104 18.5385 79.177 18.7998 79.3264 19.0985V14.3945H81.1344ZM85.3994 25.9785H83.5594V18.1865H85.3994V25.9785ZM83.6234 16.2985C83.3887 16.0638 83.2714 15.7812 83.2714 15.4505C83.2714 15.1198 83.3887 14.8372 83.6234 14.6025C83.858 14.3572 84.1407 14.2345 84.4714 14.2345C84.8127 14.2345 85.1007 14.3518 85.3354 14.5865C85.57 14.8212 85.6874 15.1092 85.6874 15.4505C85.6874 15.7812 85.57 16.0638 85.3354 16.2985C85.1007 16.5332 84.8127 16.6505 84.4714 16.6505C84.1407 16.6505 83.858 16.5332 83.6234 16.2985ZM90.1458 15.8025V18.1865H91.7618V19.8345H90.1458V23.4505C90.1458 23.7918 90.2258 24.0425 90.3858 24.2025C90.5458 24.3518 90.7964 24.4265 91.1378 24.4265C91.3511 24.4265 91.5644 24.4052 91.7778 24.3625V25.8985C91.5004 26.0158 91.1218 26.0745 90.6418 26.0745C89.9164 26.0745 89.3458 25.8718 88.9298 25.4665C88.5138 25.0505 88.3058 24.4798 88.3058 23.7545V19.8345H86.8658V18.1865H87.2658C87.6604 18.1865 87.9591 18.0745 88.1618 17.8505C88.3644 17.6265 88.4658 17.3332 88.4658 16.9705V15.8025H90.1458ZM102.806 26.2185C101.217 26.2185 99.8623 25.6798 98.7423 24.6025C97.6329 23.5252 97.0783 22.0958 97.0783 20.3145C97.0783 18.5438 97.6436 17.1145 98.7743 16.0265C99.9049 14.9385 101.244 14.3945 102.79 14.3945C104.156 14.3945 105.276 14.7412 106.15 15.4345C107.036 16.1278 107.617 17.0078 107.894 18.0745L106.086 18.6825C105.905 17.9465 105.537 17.3492 104.982 16.8905C104.428 16.4318 103.697 16.2025 102.79 16.2025C101.777 16.2025 100.897 16.5652 100.15 17.2905C99.4143 18.0052 99.0463 19.0132 99.0463 20.3145C99.0463 21.5838 99.4143 22.5812 100.15 23.3065C100.886 24.0212 101.772 24.3785 102.806 24.3785C103.692 24.3785 104.422 24.1385 104.998 23.6585C105.574 23.1785 105.969 22.5865 106.182 21.8825L107.942 22.4585C107.665 23.5145 107.078 24.4052 106.182 25.1305C105.297 25.8558 104.172 26.2185 102.806 26.2185ZM108.986 23.8665C108.986 23.2052 109.199 22.6772 109.626 22.2825C110.063 21.8772 110.634 21.6212 111.338 21.5145L113.338 21.2105C113.722 21.1572 113.914 20.9705 113.914 20.6505C113.914 20.2985 113.791 20.0158 113.546 19.8025C113.3 19.5785 112.932 19.4665 112.442 19.4665C111.972 19.4665 111.599 19.5998 111.322 19.8665C111.044 20.1225 110.884 20.4585 110.842 20.8745L109.146 20.4905C109.22 19.7865 109.556 19.1892 110.154 18.6985C110.751 18.1972 111.508 17.9465 112.426 17.9465C113.556 17.9465 114.388 18.2185 114.922 18.7625C115.466 19.3065 115.738 20.0052 115.738 20.8585V24.7305C115.738 25.2425 115.77 25.6585 115.834 25.9785H114.106C114.052 25.8185 114.026 25.4878 114.026 24.9865C113.514 25.8078 112.714 26.2185 111.626 26.2185C110.836 26.2185 110.196 25.9892 109.706 25.5305C109.226 25.0612 108.986 24.5065 108.986 23.8665ZM111.978 24.7625C112.554 24.7625 113.018 24.6078 113.37 24.2985C113.732 23.9785 113.914 23.4612 113.914 22.7465V22.3945L111.882 22.6985C111.188 22.8158 110.842 23.1678 110.842 23.7545C110.842 24.0318 110.943 24.2718 111.146 24.4745C111.348 24.6665 111.626 24.7625 111.978 24.7625ZM119.821 29.0185H117.981V18.1865H119.773V19.2425C119.976 18.8905 120.296 18.5972 120.733 18.3625C121.171 18.1278 121.677 18.0105 122.253 18.0105C123.373 18.0105 124.253 18.3945 124.893 19.1625C125.533 19.9198 125.853 20.8905 125.853 22.0745C125.853 23.2585 125.517 24.2398 124.845 25.0185C124.173 25.7865 123.288 26.1705 122.189 26.1705C121.656 26.1705 121.181 26.0692 120.765 25.8665C120.349 25.6638 120.035 25.4078 119.821 25.0985V29.0185ZM123.997 22.0745C123.997 21.3492 123.805 20.7678 123.421 20.3305C123.037 19.8825 122.531 19.6585 121.901 19.6585C121.283 19.6585 120.776 19.8825 120.381 20.3305C119.997 20.7678 119.805 21.3492 119.805 22.0745C119.805 22.8105 119.997 23.4025 120.381 23.8505C120.776 24.2985 121.283 24.5225 121.901 24.5225C122.52 24.5225 123.021 24.2985 123.405 23.8505C123.8 23.4025 123.997 22.8105 123.997 22.0745ZM129.478 25.9785H127.638V18.1865H129.478V25.9785ZM127.702 16.2985C127.467 16.0638 127.35 15.7812 127.35 15.4505C127.35 15.1198 127.467 14.8372 127.702 14.6025C127.936 14.3572 128.219 14.2345 128.549 14.2345C128.891 14.2345 129.179 14.3518 129.414 14.5865C129.648 14.8212 129.766 15.1092 129.766 15.4505C129.766 15.7812 129.648 16.0638 129.414 16.2985C129.179 16.5332 128.891 16.6505 128.549 16.6505C128.219 16.6505 127.936 16.5332 127.702 16.2985ZM134.224 15.8025V18.1865H135.84V19.8345H134.224V23.4505C134.224 23.7918 134.304 24.0425 134.464 24.2025C134.624 24.3518 134.875 24.4265 135.216 24.4265C135.429 24.4265 135.643 24.4052 135.856 24.3625V25.8985C135.579 26.0158 135.2 26.0745 134.72 26.0745C133.995 26.0745 133.424 25.8718 133.008 25.4665C132.592 25.0505 132.384 24.4798 132.384 23.7545V19.8345H130.944V18.1865H131.344C131.739 18.1865 132.037 18.0745 132.24 17.8505C132.443 17.6265 132.544 17.3332 132.544 16.9705V15.8025H134.224ZM137.283 23.8665C137.283 23.2052 137.496 22.6772 137.923 22.2825C138.36 21.8772 138.931 21.6212 139.635 21.5145L141.635 21.2105C142.019 21.1572 142.211 20.9705 142.211 20.6505C142.211 20.2985 142.088 20.0158 141.843 19.8025C141.597 19.5785 141.229 19.4665 140.739 19.4665C140.269 19.4665 139.896 19.5998 139.619 19.8665C139.341 20.1225 139.181 20.4585 139.139 20.8745L137.443 20.4905C137.517 19.7865 137.853 19.1892 138.451 18.6985C139.048 18.1972 139.805 17.9465 140.723 17.9465C141.853 17.9465 142.685 18.2185 143.219 18.7625C143.763 19.3065 144.035 20.0052 144.035 20.8585V24.7305C144.035 25.2425 144.067 25.6585 144.131 25.9785H142.403C142.349 25.8185 142.323 25.4878 142.323 24.9865C141.811 25.8078 141.011 26.2185 139.923 26.2185C139.133 26.2185 138.493 25.9892 138.003 25.5305C137.523 25.0612 137.283 24.5065 137.283 23.8665ZM140.275 24.7625C140.851 24.7625 141.315 24.6078 141.667 24.2985C142.029 23.9785 142.211 23.4612 142.211 22.7465V22.3945L140.179 22.6985C139.485 22.8158 139.139 23.1678 139.139 23.7545C139.139 24.0318 139.24 24.2718 139.443 24.4745C139.645 24.6665 139.923 24.7625 140.275 24.7625ZM148.134 25.9785H146.278V14.3945H148.134V25.9785Z" fill="white"/>
<path d="M39.3994 15.1035C38.2289 10.4454 35.4145 6.36469 31.4725 3.60998C27.5305 0.85527 22.7253 -0.388695 17.9385 0.106304C13.1516 0.601307 8.70413 2.80207 5.41198 6.30486C2.11982 9.80764 0.203763 14.3775 0.015336 19.1761C-0.173091 23.9747 1.37875 28.6802 4.38615 32.4293C7.39354 36.1784 11.6548 38.7197 16.3882 39.5869C21.1215 40.4541 26.0096 39.5892 30.1555 37.1507C34.3014 34.7123 37.4272 30.8638 38.9593 26.3114L35.4155 25.1237C34.1697 28.8252 31.6282 31.9543 28.2572 33.937C24.8863 35.9196 20.9119 36.6229 17.0633 35.9178C13.2147 35.2126 9.74994 33.1464 7.30468 30.0981C4.85943 27.0497 3.59766 23.2238 3.75086 19.3222C3.90407 15.4205 5.46198 11.7049 8.13877 8.85681C10.8156 6.00877 14.4317 4.21936 18.3238 3.81689C22.2159 3.41441 26.1229 4.42586 29.3281 6.66566C32.5332 8.90546 34.8216 12.2234 35.7733 16.0108L39.3994 15.1035Z" fill="white"/>
<path d="M6.76577 23.2691C7.56429 26.4468 9.48429 29.2307 12.1735 31.11C14.8628 32.9892 18.1409 33.8379 21.4065 33.5002C24.6721 33.1625 27.7062 31.6611 29.9521 29.2715C32.198 26.8819 33.5052 23.7643 33.6337 20.4907C33.7623 17.2171 32.7036 14.007 30.652 11.4493C28.6003 8.8917 25.6932 7.15802 22.4641 6.56638C19.235 5.97475 15.9004 6.56482 13.072 8.22835C10.2437 9.89188 8.11126 12.5173 7.06601 15.623L10.2886 16.703C11.0734 14.3711 12.6745 12.3998 14.7982 11.1508C16.9219 9.90171 19.4256 9.45866 21.8502 9.90289C24.2748 10.3471 26.4575 11.6488 27.998 13.5692C29.5385 15.4896 30.3334 17.8999 30.2368 20.3579C30.1403 22.8159 29.1589 25.1567 27.4725 26.9509C25.7862 28.7451 23.5081 29.8724 21.0561 30.126C18.6041 30.3795 16.1428 29.7423 14.1236 28.3313C12.1044 26.9203 10.6627 24.83 10.0632 22.444L6.76577 23.2691Z" fill="white"/>
</svg>
