<svg width="20" height="18" viewBox="0 0 20 18" fill="none" xmlns="http://www.w3.org/2000/svg">
<path d="M18.9441 7.7757C18.3333 5.83243 17.9408 4.93265 17.7611 4.56917L17.761 4.56906C17.6166 4.2715 17.2505 3.63122 17.2359 3.60578C17.1846 3.54318 15.9133 2.02179 12.8492 0.896484L12.4443 1.99885C13.8931 2.53093 14.8848 3.14537 15.4991 3.60734C13.8023 3.10137 11.7847 2.79172 9.99779 2.79172C8.20871 2.79172 6.18871 3.10227 4.49069 3.60934C5.05941 3.18738 6.09359 2.53422 7.55129 1.99885L7.14639 0.896484C4.08232 2.02179 2.81096 3.54318 2.75967 3.60578C2.75967 3.60578 2.45766 4.09331 2.20391 4.62864C2.05183 4.94948 1.65786 5.68207 1.04768 7.78839C0.282403 10.4308 0.0106087 14.1657 0 14.3151C0.135095 14.6106 1.70096 17.1028 5.91461 17.1028L7.06924 15.4309C8.02226 15.6781 9.00542 15.8032 9.99787 15.8032C10.9924 15.8032 11.9775 15.6775 12.9324 15.4294L14.0799 17.1028C18.3773 17.1028 19.7801 14.6955 20 14.3084C19.983 14.1305 19.5574 9.72735 18.9441 7.7757ZM17.8194 14.8938C16.9255 15.5264 15.8754 15.8716 14.6942 15.922L14.1018 15.0581C14.9188 14.7502 15.7027 14.3496 16.4393 13.8593L15.7886 12.8817C14.9669 13.4286 14.0799 13.8518 13.1514 14.1448V14.1459C13.1514 14.1459 11.6138 14.6288 9.99791 14.6288C8.38198 14.6288 6.84876 14.1473 6.84876 14.1473V14.1461C5.91868 13.853 5.03013 13.4294 4.20723 12.8817L3.55646 13.8592C4.29437 14.3504 5.07973 14.7516 5.89832 15.0597L5.30279 15.922C4.12107 15.8719 3.0705 15.5266 2.17635 14.8937C1.67786 14.5409 1.3567 14.1832 1.20235 13.9906C1.27046 13.1863 1.54918 10.2785 2.17588 8.1151C2.64623 6.4915 2.97091 5.73171 3.14816 5.36487C3.14816 5.36487 7.69343 3.96608 9.99791 3.96608C12.3005 3.96608 15.1099 4.53813 16.8323 5.35758C17.0185 5.78185 17.35 6.62041 17.8237 8.12779C18.3235 9.71804 18.6963 13.0974 18.7893 13.9957C18.6327 14.1903 18.3129 14.5444 17.8194 14.8938Z" fill="#06397E"/>
</svg>
