<svg width="20" height="20" viewBox="0 0 20 20" fill="none" xmlns="http://www.w3.org/2000/svg">
<g clip-path="url(#clip0)">
<path d="M18.9441 8.77595C18.3333 6.83268 17.9408 5.93289 17.7611 5.56942L17.761 5.5693C17.6166 5.27175 17.2505 4.63147 17.2359 4.60602C17.1846 4.54343 15.9133 3.02203 12.8492 1.89673L12.4443 2.99909C13.8931 3.53117 14.8848 4.14562 15.4991 4.60759C13.8023 4.10162 11.7847 3.79197 9.99779 3.79197C8.20871 3.79197 6.18871 4.10252 4.49069 4.60958C5.05941 4.18762 6.09359 3.53446 7.55129 2.99909L7.14639 1.89673C4.08232 3.02203 2.81096 4.54343 2.75967 4.60602C2.75967 4.60602 2.45766 5.09355 2.20391 5.62888C2.05183 5.94973 1.65786 6.68231 1.04768 8.78863C0.282403 11.431 0.0106087 15.166 0 15.3154C0.135095 15.6109 1.70096 18.1031 5.91461 18.1031L7.06924 16.4311C8.02226 16.6783 9.00542 16.8034 9.99787 16.8034C10.9924 16.8034 11.9775 16.6778 12.9324 16.4296L14.0799 18.1031C18.3773 18.1031 19.7801 15.6957 20 15.3086C19.983 15.1307 19.5574 10.7276 18.9441 8.77595V8.77595ZM17.8194 15.894C16.9255 16.5266 15.8754 16.8719 14.6942 16.9223L14.1018 16.0583C14.9188 15.7505 15.7027 15.3498 16.4393 14.8595L15.7886 13.8819C14.9669 14.4288 14.0799 14.852 13.1514 15.145V15.1461C13.1514 15.1461 11.6138 15.629 9.99791 15.629C8.38198 15.629 6.84876 15.1476 6.84876 15.1476V15.1463C5.91868 14.8533 5.03013 14.4296 4.20723 13.8819L3.55646 14.8595C4.29437 15.3506 5.07973 15.7518 5.89832 16.0599L5.30279 16.9223C4.12107 16.8721 3.0705 16.5268 2.17635 15.894C1.67786 15.5411 1.3567 15.1835 1.20235 14.9909C1.27046 14.1865 1.54918 11.2787 2.17588 9.11535C2.64623 7.49175 2.97091 6.73195 3.14816 6.36511C3.14816 6.36511 7.69343 4.96633 9.99791 4.96633C12.3005 4.96633 15.1099 5.53837 16.8323 6.35783C17.0185 6.7821 17.35 7.62066 17.8237 9.12803C18.3235 10.7183 18.6963 14.0976 18.7893 14.996C18.6327 15.1906 18.3129 15.5447 17.8194 15.894V15.894Z" fill="white"/>
<path d="M6.1084 9.90381H7.2828V11.8611H6.1084V9.90381Z" fill="white"/>
<path d="M12.7129 9.90381H13.8873V11.8611H12.7129V9.90381Z" fill="white"/>
</g>
<defs>
<clipPath id="clip0">
<rect width="20" height="20" fill="white"/>
</clipPath>
</defs>
</svg>
