<svg width="22" height="13" viewBox="0 0 22 13" fill="none" xmlns="http://www.w3.org/2000/svg">
<path d="M6.20477 0C9.63157 0 12.4093 2.79714 12.4093 6.24735C12.4093 9.69756 9.63136 12.4945 6.20477 12.4945C2.77817 12.4945 0 9.69756 0 6.24735C0 2.79714 2.77796 0 6.20477 0ZM16.1133 0.365953C17.8267 0.365953 19.2157 2.99888 19.2157 6.24735H19.2159C19.2159 9.49497 17.827 12.1287 16.1135 12.1287C14.4001 12.1287 13.0112 9.49497 13.0112 6.24735C13.0112 2.99972 14.3999 0.365953 16.1133 0.365953ZM20.9089 0.978546C21.5114 0.978546 22 3.33743 22 6.24735C22 9.15643 21.5116 11.5162 20.9089 11.5162C20.3062 11.5162 19.818 9.15706 19.818 6.24735C19.818 3.33764 20.3064 0.978546 20.9089 0.978546Z" fill="#06397E"/>
</svg>
