<svg width="20" height="18" viewBox="0 0 20 18" fill="none" xmlns="http://www.w3.org/2000/svg">
<path d="M19.3045 1L19.8034 0.966923C19.7902 0.766352 19.658 0.593244 19.4681 0.5275C19.2781 0.461755 19.0673 0.516157 18.9328 0.665596L19.3045 1ZM18.4733 4.94521C18.4733 4.66906 18.2494 4.44521 17.9733 4.44521C17.6971 4.44521 17.4733 4.66906 17.4733 4.94521H18.4733ZM9.98562 5.0548H9.48562H9.98562ZM9.98562 6.33333L10.4856 6.33333V6.33333L9.98562 6.33333ZM0.666687 15.6667V15.1667C0.446419 15.1667 0.252098 15.3108 0.188193 15.5216C0.124287 15.7324 0.205854 15.9602 0.38904 16.0825L0.666687 15.6667ZM1.99796 1L2.46622 0.824676C2.39645 0.63834 2.22284 0.511104 2.02414 0.500686C1.82545 0.490268 1.63948 0.598651 1.55061 0.776669L1.99796 1ZM7.32306 13L7.67689 13.3533C7.79925 13.2307 7.84949 13.0536 7.80967 12.885C7.76986 12.7165 7.64566 12.5806 7.4814 12.5257L7.32306 13ZM16.9548 2.29784L16.5839 2.63318L16.764 2.83243L17.0296 2.7922L16.9548 2.29784ZM18.8056 1.03308C18.875 2.07852 18.8128 2.73487 18.6334 3.24046C18.4578 3.7356 18.1521 4.13612 17.6273 4.63899L18.3192 5.36101C18.8945 4.80973 19.3254 4.28083 19.5759 3.57479C19.8227 2.8792 19.8761 2.06262 19.8034 0.966923L18.8056 1.03308ZM18.4733 5.91666V4.94521H17.4733V5.91666H18.4733ZM9.48562 5.0548L9.48562 6.33333L10.4856 6.33333L10.4856 5.05479L9.48562 5.0548ZM9.48562 6.33333L9.48562 7L10.4856 7L10.4856 6.33333L9.48562 6.33333ZM14.0342 0.5C11.5213 0.5 9.48562 2.53998 9.48562 5.0548H10.4856C10.4856 3.09081 12.0751 1.5 14.0342 1.5V0.5ZM17.4733 5.91666C17.4733 11.7624 12.7419 16.5 6.90703 16.5V17.5C13.2956 17.5 18.4733 12.3132 18.4733 5.91666H17.4733ZM1.52971 1.17532C2.23949 3.071 4.91254 6.83333 9.98562 6.83333V5.83333C5.47351 5.83333 3.08771 2.48455 2.46622 0.824676L1.52971 1.17532ZM1.55061 0.776669C0.171066 3.54002 -0.0318117 6.19861 0.957757 8.45111C1.94559 10.6997 4.07791 12.4437 7.16473 13.4743L7.4814 12.5257C4.57747 11.5563 2.71597 9.96701 1.8733 8.04889C1.03237 6.13472 1.16231 3.79331 2.44531 1.22333L1.55061 0.776669ZM6.96924 12.6467C6.14525 13.472 3.69155 15.1667 0.666687 15.1667V16.1667C4.03195 16.1667 6.72587 14.3058 7.67689 13.3533L6.96924 12.6467ZM17.3256 1.9625C16.5142 1.06507 15.3398 0.5 14.0342 0.5V1.5C15.0451 1.5 15.9538 1.93638 16.5839 2.63318L17.3256 1.9625ZM17.0296 2.7922C18.004 2.64463 18.9589 2.13186 19.6763 1.3344L18.9328 0.665596C18.3642 1.29766 17.6165 1.69192 16.8799 1.80348L17.0296 2.7922ZM0.38904 16.0825C2.52895 17.5113 4.77234 17.5 6.90703 17.5V16.5C4.7393 16.5 2.79825 16.4887 0.944334 15.2508L0.38904 16.0825Z" fill="#06397E"/>
</svg>
