<svg width="20" height="18" viewBox="0 0 20 18" fill="none" xmlns="http://www.w3.org/2000/svg">
<path d="M19.3045 1L19.8034 0.966923C19.7901 0.766352 19.658 0.593244 19.468 0.5275C19.2781 0.461755 19.0672 0.516157 18.9328 0.665596L19.3045 1ZM18.4732 4.94521C18.4732 4.66906 18.2493 4.44521 17.9732 4.44521C17.6971 4.44521 17.4732 4.66906 17.4732 4.94521H18.4732ZM9.98555 5.0548H9.48555H9.98555ZM9.98556 6.33333L10.4856 6.33333V6.33333L9.98556 6.33333ZM0.666626 15.6667V15.1667C0.446358 15.1667 0.252037 15.3108 0.188132 15.5216C0.124226 15.7324 0.205793 15.9602 0.388979 16.0825L0.666626 15.6667ZM1.9979 1L2.46616 0.824676C2.39639 0.63834 2.22278 0.511104 2.02408 0.500686C1.82539 0.490268 1.63942 0.598651 1.55055 0.776669L1.9979 1ZM7.323 13L7.67683 13.3533C7.79919 13.2307 7.84943 13.0536 7.80961 12.885C7.7698 12.7165 7.6456 12.5806 7.48134 12.5257L7.323 13ZM16.9547 2.29784L16.5838 2.63318L16.764 2.83243L17.0296 2.7922L16.9547 2.29784ZM18.8056 1.03308C18.8749 2.07852 18.8127 2.73487 18.6334 3.24046C18.4577 3.7356 18.1521 4.13612 17.6273 4.63899L18.3191 5.36101C18.8944 4.80973 19.3254 4.28083 19.5758 3.57479C19.8226 2.8792 19.876 2.06262 19.8034 0.966923L18.8056 1.03308ZM18.4732 5.91666V4.94521H17.4732V5.91666H18.4732ZM9.48555 5.0548L9.48556 6.33333L10.4856 6.33333L10.4856 5.05479L9.48555 5.0548ZM9.48556 6.33333L9.48555 7L10.4856 7L10.4856 6.33333L9.48556 6.33333ZM14.0341 0.5C11.5213 0.5 9.48555 2.53998 9.48555 5.0548H10.4856C10.4856 3.09081 12.075 1.5 14.0341 1.5V0.5ZM17.4732 5.91666C17.4732 11.7624 12.7418 16.5 6.90697 16.5V17.5C13.2956 17.5 18.4732 12.3132 18.4732 5.91666H17.4732ZM1.52965 1.17532C2.23943 3.071 4.91248 6.83333 9.98556 6.83333V5.83333C5.47345 5.83333 3.08765 2.48455 2.46616 0.824676L1.52965 1.17532ZM1.55055 0.776669C0.171005 3.54002 -0.0318727 6.19861 0.957696 8.45111C1.94553 10.6997 4.07785 12.4437 7.16467 13.4743L7.48134 12.5257C4.57741 11.5563 2.71591 9.96701 1.87324 8.04889C1.03231 6.13472 1.16225 3.79331 2.44525 1.22333L1.55055 0.776669ZM6.96918 12.6467C6.14519 13.472 3.69149 15.1667 0.666626 15.1667V16.1667C4.03188 16.1667 6.72581 14.3058 7.67683 13.3533L6.96918 12.6467ZM17.3256 1.9625C16.5141 1.06507 15.3397 0.5 14.0341 0.5V1.5C15.0451 1.5 15.9538 1.93638 16.5838 2.63318L17.3256 1.9625ZM17.0296 2.7922C18.004 2.64463 18.9588 2.13186 19.6762 1.3344L18.9328 0.665596C18.3641 1.29766 17.6164 1.69192 16.8798 1.80348L17.0296 2.7922ZM0.388979 16.0825C2.52889 17.5113 4.77228 17.5 6.90697 17.5V16.5C4.73924 16.5 2.79818 16.4887 0.944273 15.2508L0.388979 16.0825Z" fill="white"/>
</svg>
